<mxfile host="app.diagrams.net" modified="2024-04-23T21:12:01.430Z" agent="Mozilla/5.0 (Windows NT 10.0; Win64; x64) AppleWebKit/537.36 (KHTML, like Gecko) Chrome/124.0.0.0 Safari/537.36 Edg/124.0.0.0" etag="xWk2LHlWAYhAQKDbFnVF" version="24.2.8" type="github">
  <diagram name="Page-1" id="brW68liZpwBAXn7qICkg">
    <mxGraphModel dx="2478" dy="1352" grid="0" gridSize="10" guides="1" tooltips="1" connect="1" arrows="1" fold="1" page="0" pageScale="1" pageWidth="850" pageHeight="1100" math="0" shadow="0">
      <root>
        <mxCell id="0" />
        <mxCell id="1" parent="0" />
        <mxCell id="SOp-MsYclCzhipOw51BH-28" value="" style="edgeStyle=none;curved=1;rounded=0;orthogonalLoop=1;jettySize=auto;html=1;fontSize=12;startSize=8;endSize=8;" edge="1" parent="1" source="SOp-MsYclCzhipOw51BH-1">
          <mxGeometry relative="1" as="geometry">
            <mxPoint x="-17" y="230" as="targetPoint" />
            <Array as="points">
              <mxPoint x="-22" y="320" />
            </Array>
          </mxGeometry>
        </mxCell>
        <mxCell id="SOp-MsYclCzhipOw51BH-38" style="edgeStyle=none;curved=1;rounded=0;orthogonalLoop=1;jettySize=auto;html=1;fontSize=12;startSize=8;endSize=8;fillColor=#d5e8d4;strokeColor=#82b366;dashed=1;strokeWidth=4;endArrow=none;endFill=0;" edge="1" parent="1" source="SOp-MsYclCzhipOw51BH-1" target="SOp-MsYclCzhipOw51BH-16">
          <mxGeometry relative="1" as="geometry" />
        </mxCell>
        <mxCell id="SOp-MsYclCzhipOw51BH-1" value="&lt;img alt=&quot;&quot; src=&quot;data:image/png;base64,iVBORw0KGgoAAAANSUhEUgAAANUAAABgCAYAAACKRzdFAAAAAXNSR0IArs4c6QAAAARnQU1BAACxjwv8YQUAAAAJcEhZcwAADsMAAA7DAcdvqGQAAGdFSURBVHhe1b1pmF7Fled5UksqJaX2FRAgoQUJtCBWsxiw2Q3YgMHYrnKXqx5XG7Crunu6a+bbTD/9paef6Xm62q7CrnLZgHcw+y5WgQRIgITQvqF937eUUrlI8/+diLgZ7803F8lL15w3I++9ESdOnDhxIuJE3Ii4NatXrT5pQI3/NwtPAeTX2nrCWltarHfvWqtJOB0B4Yrf2trqjz179myjCyTaJTqtLa3WojT61PYx6xE9uwDiHD58xAYMHGA9e8RInfB3gnzI9erVy2o6SyPLf2vLCb/2gL5oV8TL5cS9wltP6OZEjfD1WIWXiuzHcNI40qB8DBjo8cDJSVeQ4UGibfbyUD706ElXIEXwgHB7ImTDeqg4HFIC6QpeRgM5Ia9evXoqz1lAzlgJWpXIkcOHrX6AyqNnzAhRMz4KED+tJ1Xmza0q89rK8DJuAtFpPdGqYMkX+gnyPJQg5KPVevfq3W29It+HDykfA+ulVyX9rQLo+gmVYe/ebWn0aBcpfxbDPNao1LqgXR2IRKZTxhMkvyzslFNwTYqR46UrCMrXTWSBY5J3Caud4vJc9lOEk9L6EC9zEYrH3M8bhOihi+NI6ZJzYsnp+cRJboK0/M4jZC5BIivn0YnnN3IAYeBkyZehKJM8TrqWncBZyyGll1wC4UO7R15hq0GKU8Stgt8JiRDURRoJkLUAvk6SYJ52ch1BSiLi1axYsTKic0mFdbIgfrJVaqIWope3jJ0zGCjoqhabe1osCjM8dRz3pFo5WoievWlKAx7/8/QCjQD40zIeOnjQBg0aJMUIeLQQouT3AfAPaUP/hOLQ+rq3/rVRb4OTrmUBhVaO2KFllBL4/8BHwU/SJGk3aZCXGvXQPUsK40qdgIoab/E/pB63vp6WUfIiQKh5fitAsoWvHkqDCkWDB6bLOdy4Xw7km3C3HDK+2tIIfikE/CCrUObglcsi587lflItPD1V//qKniTFbZcb8YN10kstPJRTjNCORGxdPH9kjDzpyi2VMfEV0ZxGDoTDU4ssml7Sq5z/alDwqQQOHTpkA7EclI/QiIV0qoGS8N7Ke/Uo95rly5Z7jIxvngjiRsJV9+YC7q3yCH4wEPASVDw4vmebAlRQyjzgvZ4nlGJBSxUXRVF36ynonwvBH3JwX4/fIvxDhw7awIGDrJeUBQFipp3ABMvA09MV+q3g+HOgXTWNk7F45Q8tggsTSKSVgjzKkQK0trZ4XjAbQg/UBq4Ycp735AQnpFiHjxwO5h9KL9l1Bi4r5cNNmvhcgO4rngGlQ6MI9BJfJ/VcYIDrbEgSMUt4eaVSGuATHmTITQg/qTAazgTIhziHDgdl7NmzVwwJuD0yuznECny2SF4uK9HvEcmdFK08D8SFF3CcLzkaB/jJ9aoNnFMHGl4aoJ6ZwldCmx981pCWZJXno508M4AkDSnlQYOI/rmkKsZU3CUaMT0ywfgltxkdyrgRH2ETh2cl49eUocCgEo24Cch8GLep1SIw0q0UWhRWjEslwfYdMIgxlQofVPgLSbSDYpxAgcTKDuRpeAoxruQU86ECjwy7buQslYCCoSJ6S+o2YwqI1wTJX0ChMzYcOKBe9JUPIAsvw0nhtzRLVoxFgk9gjDikk5QAnvETP8gKCGPcKsTxSt7KMuOdE7JQkBX+hVxwCg8pxP9KzxVeeT90UMo4SMqY8gGAlmgnkF/oRWKZlxA8SvLSg+uNnilDyq4YQwMgJyil47qrvPdS5YDHgBr+52UNFPlQHHqqAQPJB5ZWO7JtAE90OugVvXpkWg1E/Cm2O3418cov90/3OV7Cjf6A36tQnBs5NwcJ8+eIm34xnocTl1+kWQnBr/glfK/EbX6dOVoh54df5D3x6P6JNzn4pOtP9y6pmI+qP3DAjS7RqcBPz9CJtDxp/uku5bvAq+KcUQF3mIqh54nh/KRv7lJehAN9XMDHL7oUL3fyl7enQhqFXBIu4e5CmDdQ/kdDEnoZd+mX4uY//ISjW4cKHGhzTTRSWoDTDqas/8rpeHh85pc/O51IS64iTf3cj5/wvcLFeO4LbjUX8XFFfP2yKi+ICbYD/KDfXQA/p8x9mW6iJ3+CQoEELwf3rOLKID8UpgBoqDX1a0bPo8dC7y6klseBaNXykUFbkh0gOROZE3iDIEfL7Xy7Z4nH9KgrShXuiy6jY4hpkOVTyLaTpUHx6DzEuH6pRkd+hXKl8Gp4JUABq0KSTwpOz2VI/imsKp5X93jfNYRqEX78dRW1oJ1lRf1bvMuhmt8pgxKrxhC0q9I/lawLhOwZLwNEcCkoXrF22091dg5UqmT6FVET/cwlhUURqRz0CBU4QNkvOW/p6W3is1/jTcLJ3AlwFcdVPjVcOU4VCD1UfMgh94OBJLMcMrp+KdOpFuePCmKgzENXcKr4HcmiA6hoTARBz8oEOmKiOwmluCSUWt5yvKQM3aHXERRxlWCWB082jumSsp8u+KykxhfhIVyqQeVYK7aMSQ5Afg8I180/mcjewuORcLgm+UQoCs3T8H+V+L8vJNqR9O8Ffwh+qgG8ifapkA/Z0f9TyFdRdsmdBpSKL4PfV8A5Uzlz1fxOB4r4kdGYExr59LK2EKhf9KOydQVlvvTsSt0doBdRT+WmXGcgmm5aujMf2PukjpJh0Os8A5H3gKt7XA4xPIfkVSXoTwKnaG9Uh44Y74h0hxn9fSSgxE4zes/vf+/7/9nvcgLcxwy4vS9l9HcP3ZSX9xRCLqaiO4KYZkiDWbNTS+P48eNW24eVHiESdA4dOuzvS3r26KX02wy+VlUMZhk7TUP8eH1QeHNTqx08dNB6qhvq2attirgqRHn5+Ej3xWxk9K8GRw4d8albeD105IgdO95ox5uOq0XoGWfpQvQW9WbgNTU3h1ks+VHJq+ZDEYhTAfII5SH0vDxyxPxeKGmc163yiHHhifLo06dPUR6dQdIrz6t7hItDus/9lAU3rXXbHfoAaXg+svdmXQH4TcebrHdt5Ux0R1DkgzKPbPX8/vdjpSrzGZ/dPJFLBd0dCC27xiOpEMNjdZB/kcYpFCJXMl9bW+utPJWhofG4/eQnP7PfPfmU1fXta+ecfY4UMdCEfo16AX+HgrA1yMBs062HHz16zFauWSuyNda/T1/bvmO7/Y//8T+kJLU2btxYT69QyqCjIZ/4p0pNLyUBg+d+og95IMZ0OKa0nn3uefvpTx+xt9+ea++++57Nkft4wQLbvGmLDRkyzOrrBzgujcSPfvQj27p1u50/+XwvB97R8e4lirkAHtPsGAHOrpzPYiYE8eWTEPCoR7Kyb/8++2z9OutfXy959haaflREV6rYqLqNWwLRc7oONdbU1CR51Xm0AtoQAsQw5M9sbDu9Svflq6cViDkveRy88+cIyIGKmCt8V0Ccpmblo1aNAwLsIp6nkRqHiFspKZhLDAb+AyT/3K8rUGIdjql+XyjR80fxvGP7dlu8ZLFt27bNFi5YaEcaGkKY/vX0l7rKOI8olt+ESoXFtXfvfnv0scds8dIlPhHQo3dvG3XmmVY3YIArQKpQ6ForlUXxUEuvPFGYNaJPAfo7qkrJtrGsmx7qRQ8dOGyNjU12xRVX2JVXXenXoUOH2dwP3reHf/ywrVq7SgRFUZVn1KhRNnjwYH8BL0ZUgLpCUA4+chf8aDRQqJA3eHZuFZfGh3twvUERLF+xwh595BHbs2eP45Pfk16JwvQOV8f3uBHIMw4acn6J9NpBR/4dQZRncQVSWtzk/kD5OcKpJguEfHizEh/c+5SgsujLmUjAfXL/qyHnI14p/+amFvvkk0VesOdPnmwbN260vXv2u1BQnhPgqic8ptZ0z759tmf/XjvUcMzNKxRp//4Dtn/vAWs4fFQ4zTZs+Aj7xje+aRdOmWbHpPyHDh8LSiU6NaLHa7iDR47a0cZm490qs2vg7T1wwOk3yl8oVRWNiohJWVdXZ7feeqvddddddu+999hDDz6oNL9hexX/5RdfsYaGRuvXr7/dc8+99oUv3OAV9vjxZu9Vm5oxCxvUW7d6RSGdo8Lfu++QHTnS6Dy5eDx99eUS0tFjx23fPuVz/0GPRxjXw8rzgQNH5H9Icmz2lpeXvwcOHrQdu3bbvgP7ZZoqPyKIQ16HDjVac4vJv0V4hyU3eCHPbRluFY0jDUd9qVCozIIq8ugWKF6QZfcJeP7/F0Aw/0gdXnMu4n1q9XwJUXe4pIDRYuEW3XSZdg7yT2l0y/wDhEO3jrnRV2Yez5hJjz/5hA1VZbj2+uttsSpYfX1/Gz8Fk6mHseAchX9l1lv2wrPP25uz37ENm7dab5l6KNGzTz9jmzZtkmLtt969+1h/KfMLL77oPcWy5cvtjbfetHHnjZeS9/OmaPv2XfbLX//STYVzzx1rm7dstWeff9ZeeullN+N27tplgwYPiSslMHUkQwkQpUTJFoq/LVu22c033+yrI+rq+lhdn942etSZorXZVq5YaZdcfLGvjXv5xZfsgPgafcYZ9v7779v7771vO3fssFmzXvM1maNHnyEeV9jTTz1lr732ii1ZslQV64h6uDPcPCbRzVu22DPPPGPPy+ycN2++evUdvsRr2/Zt9pLoY+4eUuUYMXKEDagfaB999JE9+8yz9uqsV+3jjxdaw9GjNnLkKJlFdTIX99uvf/0bVdC9Nvc9ma5z5tj69ett5cqVdv6kSZJfrVeARYs+teeff85pDhkyNBWdg5ukkntXwwroEExlddNavwq9AvL7DEIaYUxFvA4hC8J8Rq8Yq7czeauQQG/bmX8seXHXEq9yzTi1TDj8fd1cFt6ZY1sCa7qI19yi+Mkv4ahlc5eeFRZaxlYpfhaeuxifJfapAtKSnlT30yK/1paT9tlnazXu2GZTp063C6ZMlkIPto8+nq9eY4/q+UlrVCv6zLPPSOnetDGqBFd87nNS6q3203/5me3audPOPmesr6c7QybfGaNHq5c46ibkrl17ffC9ePFimZZLvHI0NByX4i62FVJkeht6xYd/9LAtXbrUJk2eZOeff74U8WN77OePKf4eazzWZMeO0SuybOaEywdlAVg35mvUNL5gyQuLiqdMnuJKtE2K3th41D6VSbpG+aMn2rxps731thqGF16QOVijijHAFn260P7pn36sHuOAfU75GjliuFeUx3/7Gzt44JCbdY/IvFu9arVdcumlNmnSZPvgg3nye9R7tNFnnCkF6iUZnGP9+g5U2Hz79W8eN7UsdutNt9p4NSazXn3Nnnjid76k6qgq2EcffySc39gyyWXE8OFWq8r/8UcLbJXGpfRe5HeeTNlNGzf5+JDy9bzHsvSGV3/+nBx6U3KspwxX4uteeOgVS+fwK3Qq6hO6m+7RWWSK83gpLE+Le8KirrEVB7ppAqLAw6X4wgOfnhk+wM1pqTKGcUFy8vGWlZmf5LyWlyptO6CWQoNGJKfHH2EJoBNxSMuhaGXw06XkPP2ciPDx81XEKigG/ovU8g9U73LRhRfYgLp+NnHiBDfptm7eYieV4W1b16sH+cRmzJxpd99zj911x532jfu/ZoPr66zx6GG7eOZ0q1Phjz9/stx51kMK26TKShoTz59gdX3728KFi9RiH5PCHLcFuh8+fKSNGzvBPvxooSr0Trvtti/brTffbrfc/CW7/fYvq0Lts8/WbXJzKbTe0QZCn1yneqgA1fp6DTvpMqGzHjJkiCOgmJSFvy+LLa5jKuzLX/myffObf2YjRoyyN15/S3TM7rv363bDDbfYTTfdZBdIDkuWLrf9Mt1WaMyEct940w12x+23ual5111f8TFaf/W8k1WJBw4cqJ7xMq+kb731lg0eWG/fvvc+u/GWL9jdd99h06dPswULPhK9veKAfNTYuWPH2QPf/xvJ8c8kv5nO66qVa1yZqcxr1mxQAzNJDdzQoEsUI/9iudNwxBvIBeAe8jj3p6SJGPQp6WsBiV503rm4C/rhcfnvsm2Ln37Q9fCka3jh75Cw4o94IEQ6PXqGq4JCxHBDXoO97ZWHqxzTyDCEi6kEf3Vx2PWF4zk59xOOm4kknuFzlRmVP0Mbs4xnF4LS8OlrcEou4dYoE6kcmC6nlYAupslimTzN6umWrVhm77z7rh3UeODAoYO2YvFyO9bQYus3brfjqhAzpp5vw4f2l1nUQ/eT7X//u//NLrvsYp9CPSFGMP16k67o92FlvtIbPmyoXXLRTFu39jM3D/eq5f/ss8/UK1xp/fvXu9lIBdi8aaPMpVn2+ptvSJFXapxxRL3UUadVy/aDWChB1roqOyh2mCrXg6C3xlqYH+Rv2LBhRX4BFm1SL0MFuER8DfNFr5s2bfH0MSnpoWbPften6ql8jJc2qXdDjhdeMM36qfep71+nCvYF+5u/+a4qxhjJgtcPJlO6tx07fkxjqL026fwpqtyDrJf8h6nXnzF1mvWy3nZgr8Zd4ql3rzqbOW26erezrba/TNCzz1aPd5byvdr5/+yzdboel2yvsD5s6VH2KD/yjjx8t4BcoR9cy7riLuih61byU3jST9eh3BV0FO61xP+CjidH+tEFnY3xRLuotPzJVcSLLo8TylT3mT9VOaQa6LgL/wIEv/DLPIqKUM05Y7rtFoDPT8wVLVcZcu94T4Ui1yjOyhXLNWg/aP379rNP1YMskxl2VApd17PWFmhscERjqZrWJlfAvuwu9pZQLT/K0aOXlEWFflLC0HONKiZX716kwZiZfXrX2RWXXy4uT9qST5fa8mXLra/MvmlqvX1sd7zJhQkgXMZMgwcPsquuvspGabxDYdEZIXwKitlHMkLvEwTgQvALJveq1SskX1UqmVXwkgqKWCTjFVE30hv37y0l6y9+eigRKiO94uhRo+1y8cwq8H3qsZkx7K3Kg/yggZnD6wOUD7OK3qW5pckdsu3Xb4CUt1ai6qlK1MOONDaYjBtVDMlNMiJO/wH91QCJmNLt36+v5DHDdu3eaZ+tXSeTVJbDwCE25uxzvcLGLBeQ3QYgvJrLIY+UerJOIOSQxgsG5KFLVb0FuIqe66LrrzzwS3Fyl+LhHDxi4UBpCyyQugHlDPHsesiNCMUECgeka1XoNLANIhqViZaeF44MvHmv8MADD9jf/vu/tYceesj+w3/8T3bfffe7qbZeJuBQmUnEWa/epOF4C9ov+3+d/f0PfmSLV6yVoknhauiryIqU2J9DpkjnrLPOsrFjx6o3WChz70ObeuFU7zFQ2uEaw9Rq3DV9xgy76+677LZbb7GZF1/sG/YGCQclRiwoFrrgDQj56K0xoez9JpQa+10t/Keffioza4FNmDDRjwo4IR58lQWcCPeEFFp11BUVWTCRMXLkSB+3XHfd9Xb7l26zW2652cd18DZw0ABV7JF2vPm4TOBtTqe5+YTNfW+O/fM//7Nt37ZTvWitK5JYUGPRzycj1q1bo/Hcca/UTeoFN63fKDO6hw3oP8gbjt5uNdDThIaN7f0XXqA09fzmm2/ZksVLbcZF05X/AZ5mR4CEvUy58YcI+JUgoESkpNydAtgRP6ddhkQnXsmPo3cWJwPwc1w1biKQO37ZM8jRt/KX4bjj50oYEvFfGaczR4mSVrWwzPnbfq70IrrfunWrrVu/zs2hczXQHjp0kNVLkQYPqrdpM6ZJUCdVCebZGapU5557rr01+x177bW3bN6Hn9iTTz3ts16D2QMkRe2plnjN6pW2Y8fO0HqjzBK0UpTS9lNFucjWrFppW1Qxp029QL1DH+vbp4ddMvMi9YC97bVXX7bFn35iK5YttaeeeFzjvAW+69R5h2/o6YqZ2iQ5NaiHmz13rnh612a98aY9/vhT9i8/fdT61w+2r375Lhui8Q4KTGVvPdGsyigBqYY2abDcrPyzSqS2Xy+bcfF0231gl73yxouSxRp777337bnnnrPNmzdZv9ijMpv19HPPqjLNtdnvzLZXXnnFB9r9ZApi/jWr0i1btkw95XE1DtNs/Yb1MqPnyGzeYR/MX2BLlq30nohxZI8e6sFUXqHMTopHteu6DhpQbxdeOEUNwyKfFLhoxnTr2TvmPf2QhZzPzOGg49fokn8Vp3/t/Nq5inRcHcOzZNcO94/ken7voe9VTqknF8ERlVlMmNy/4r4EqYJg8xZ0E1SJh4DL05IVkPn5rf4xtmhsarTFi5fY7l277IabbrQzz2QWS4EM/nVl1o6xz6bNm+2a6z5vEydO1IB9vS1a+JFa0iW+Ff+OO+60iVPUwmrwsGf3Hvt06ad+f8aZo2XmLbULFEZlpLdhpm+xepJhw4co3h3qqfo5T0OHDnGlRZkWLPhYlekTVYx+9qXbvmTnnTc2jBFoWV0WatnFH0q7eeNG27xhg61atcI2r//Mjmv8NXX6dLtLFWrihLHeGDM+Ybw4XKYgg/7169b7dPk1V13l/GAaDhs23I6rV2GyZv78efbZus9k/o20G278oo05a4wN1ZhoxPBhztfChZ/YmjVrRH+i3X7H7T4dD+8rV66S2bZGPfIYu+zSSzVu3G3vzXnXPpw/31avWuX5+Np992qcNdCtg0/UY0+ZMlm9d5BNS0vcDKmeauFChV0wWenfINr0+FkRphvJgokbH19iCiAboEBsD+gi4cTpFiQl70ivqgD4YUq9T9ClLuKBX9bdmuVLl2PthExVIYDpwTRhsSsXSHhlQfAsxxQmVz9zogO6DjGMHgGbHjPEeekMYhrNsvtRLvg6frzRhTCgf3+PTyOATcwiCl5qMuZhRyp+TY2NtvfAfscZOmyoDajvr8ofaB4+0mANh45YX40PML0OaCzSr29fPdeFpIWzf98+55kVDqnB4ZmCOKCxG6s5WAp13rhx6gX6++SCiy3KAHx62cajjdZw9LieeS/S6OOduj51nnZt7z4au4Ac0jx48LBXTCpqWNt4RJVhlAo9bDWHj+PK4969e2z//n02YMAAmYQj/F0blY5Chz/WMh481KDeq68alIH+Ho+OkCwcOHDIGiTPwYOHKs91um9QL77DjiitYZIT47t+4g399/WIBzWGVf769Anb+nm1wQqWNWtW2WOP/tzu//rX7ZprrvIKB8CjV54IqEhrS7O/Z3N/NZIOHZW/ePRKK1RX4G4AukscP3qgI7olII6ftcGpUDDfxnJVSPUj191uV6oOFb4cL2Ve14pKVY1+9DulShWBwTSZH6CxRJ5OORnvNOXJ8WHkhVk4cHz8p7RSA0PP5/FAjlR4hwSg0AXhVPgCpyNIbQ2KE6kUfm1I8QpwL39v5ZQG731QZG+1vTZFnAjw7UNnKR9jMJYRFYPvRF9AmqLInT9jlgGBrwBYBWnmLfHgYzx4UTzvURWE0gNQSLHbcENa3sFAQ2FU/EWLFtlHH37oFfh73/++Ku6AosFygBigZyo6ZUij2K0yVxyfnPIyizLqApDbH7tSQZ+GkhnchMvk0ekBgkquO9BFOkUv2BXENL2HAIiW8ZAKObmULkpJYSQFQyeRsw8D5XgGN2xP101sVR0dF+nkAMvOdhbmt4qUeusijHsgPsO/86I6gLJQUbyWAxk95y0mFFkXKC4HAMaWIPBOj8U7r1CoqUIBXiHTs4iE3i08VpM7ZFH6BKCgX0xKIBaevRKKBmQIowd//bU3vIH4ylfu8grlpEHgisuAHOQ9V5fgaUWmTwVOMcpppNAOapYtXdZGp0oeO+ypyqmnuCgJtVc/unbH60J29FSkwzuaTluUmCYFCk8NMjf8gI40diMsOiDpS+qtcL3kV6FHHd0LtzBjU8uYwpO+pWeuTl//HOTBvRLKSZbxcSg4JhbT00U6GRkH0ov3TE4EhOhBZaQmxbS9lSTdFBfI0anM+jlnOX/cxIfUS1FZ2vEioNLF6MU96xGXL1tm540fb8M0xsQvisDvK0D+yLZo4Tsr8wRKxy0gVUQvbyDLVzUodLd8YGcnQBpsy6mX+X/6PdXvAxApJxr9ihYwD0cIqZCqQZlWFUBxkwutaSBIAZI5N/NQHAV5ZQJFAOnUMAa14leC5ME14oZ3SRG4lct8ShB6BFc2/ZIIEjiP/k8PiRfyAZP4JVeGAjf8CzSiI8wDArTLFeFZ/CLc/XiKPk6HmwAsK3K2iBNdAZGeQ4zHpMn4CRP8qDVEBn6OliBVwvCvGkYHENErYuQ8/QHh9yVbs2TxEpdXR9kLihrPTsuw8jjl+4oS4DZVXUfMqQRASajxDOrLkFHyeKgA5hLKy1FSg4cMK/y9NNW6YA7R+0GXt97Y9VQw1gj2ZGmJmj1nBeeanziKqeniyhYrFLOYVOA0joF2OIYsxCMdqKYVH6SVKlRBXn60mpg8oeKFcQzOjxmWDe9mHPElMG5TTwEv4DMeIo/Nrc3Wm+0fDhr7KQbhvkLAE8wgxmc9HvlmEiVkI6TvvCg1TzsC/DMlzgGRjL/IO72Di1fkW3VNnYWDnmnM9u3b7zOqocfV2I28Es4/cOhpuI/PNFi+MkIe8NgVEJ8ySLN/oRQrwdOLQP54Ec87NDDzsDKkcPLqY3WVR3dmGeEbfUy663QWLVyERnDLPzFCU9IGKCWb4kICIRMwW3ARgcLBj0Q8XIHl8k1xvED1K65CTJXKo0bwMUIFEdIIlbymppdt377NV40PVEGelB+LYH2Lgn4A8Wtr+/hGw7o+/ZxWD39fEe0bobldX4xlyHtbelRC1R8HFq/igBOtYdbtmMYPDvKuUxpkuDnmgwWmxxrZguELLMO0uq5UPBSfCsbKf17oFuZfD/KvwbX4am5uFo0+8gvyZAIDUSAzJgKayKf8yT8TKuSZF+CtqgysnIcuKy9q63qbqgZ12t9F9RQdFJkGgzzAK5WopaXZafbpwwwfkzQyaaJSwSsVmtyzZcWXAOkhFRV80dDs3bvXX3h7RQU5ge6ppMjEDwyVx8mTLR7kkzM8676sezmA4z26gEqbdCfoWiW4vGI4lQTTDD9+QK5TQbbKJ3TkXa5U1eiXAb6YDEGm/GqWLlmGVe4EI90KQIFReCI5MxGhjfHgFZIOfkHpdQc+NCskLMC7iB8y7jNBsn0TashLwClAt+BC7+CBw/bwww9bn7pa++vv/LX8T9pP/uVfbPXaNR6OkqBkKN3YsePs85+/1iZPmWy19Lg+BoEetLmPaXiF84T92nisxV+komhXXnmZKqgUQvKXOGzblm324Ucf2dYtW2z4iGE2Y/p0G3feeao0PWQK1aqiHLXlK5bbqlWrfdvGiJEjfSvHeePH+nIpsetDIZQ/FSJ8Iw8W67IA9pZbbhH/dV4ZyTubGleI5qefLvbp83Fjz1O+Pm9Dhg91eZHnhR997NtAWN0+dOhwu+yKy2zCeeMVTu8aK2bMLhCzaxs2bvQtJbfecpuxJQRF6aP80qgsXbrMlixZYsfVSJw7dqxdeuml/nKdqJDyvOjKGsN58+dbsyo9QFWnynAlDzMvnmmTJk1SQ0HPH04+Zs0l0Ka86E28zSBZTDSCNAyeYIqSQ/LXlTg0MD6myiIEvQPanuON0sg+tECjUi2NDPzg0ZbwgYJEs+dDDz0UXv4m4D5zZJbMewuT/HNIz5l/EpBXphQndwniM/QpRHrFinAgxYn+0MbxXmb227O9Fb38sss8Q++88477X/G5K2z8+PN8sScl9PGCj23z5i12/qTzfdkMOuqQ005OFQz6bC/YsGGTb3fooZZu+rRpuqJAJ2zLlh3281/+wrd3sKFwxaoVrni8uzrzrLNd+V57/TV74fkXbfee3f5Oh5XiuEnwMHigElJyYpq8czZFn7o+3jvxAvqpp5+xDes32uWqELy3okK0NJ2w19943Z54/Anf4cyXQlgBwd6myedPVqHW2vx5H9pvf/Nbz+tRhS9X5VqydImNHzfBhg2l4mFukUcSD1d6vSNHjtobr79uc+e+Z1d+7kpVqgFSLjVoUuD58z+2X/3ql7Z16xbbo56IykUPfJ4akGRZQJPrvr377PkXnveXy1u2brXNmzbZxk0bbaX4WLfuM6+Q4yeMd/nDC7J0kxqAJyCVTRkUTpxQAXAR0mPJm3tPQ/J1vYJuGS+lmcWjUeNFOo21p5XHqeJCj4+pqwRiGpWVKl0TKFGYgjk/AjjPcCTqkF/lwPdHbIQUVobkH4WFwywpejUuVeKCBw7bPebN/0DK1McrESYBqwnq+vazv/j2v7GLLppp0y640GZMm2FN6gVXSqFZD3fWGWeoVzzhZpobHqVmkZeYWzZvtlmvvWYvvfiC70U65+yz7cKpF/pyHpTwvfffs4ULF9hNN99o3/rWn9vUqVOlSKulOOts5syLpXTH7NFHHrXRZ4yy76gXve66a73H/GTRJ95qsq7PD7RXesxQNTe3emMw69VX7dVXXvV9WizYvf7a66wPs66S0c5dO+2xRx+zUaNG23cffFA0r3MZsLiX7SyYOL/5zW9UyCd87eONN9zgy68WfPKpzOMhNmHS+OJ9m3fMcqwif2f2HHtF6b6tBome4IYbb7KB9TLhhMKL5l+q8WBlykMPfc+uueYabyBoTCZNmmDDh48QVigPAGthxowZztvnr77G8S+55BLbsXOHV/o77rjdeQJ8y35qSHOF7wRS2btLcaoB/uSTn3gq9Aq1THG4JgfEq1eq8gE2CacKBN2t7BDQq/ZA4pivXP8VAi0IZhbbtdVOeGtH5WdQirRRMFoO1t3Va6xypioSAkJYZIke47dSQJYvlfOIOBqONtjuXbvVS/RTgUhYSRgKJB2WPskIsauv+ryNGDHCJoyfoEo8w7ZJeXarpzl8+JBaujo3zVg6xa7Xyy+73M2vDes3OJ/QgV6PXgy8a3w1A7tx8eutAj2hKy8mVFrWooJbt2Gj716+USbhYNGrl4l2+51fti/deYf1U0MCvf0HDtlI5fXccWfbyNEjber0GT4uo8JS6OQtgUhak8zJHTuUpmDEiOGOgxnerIQwg9h8yaoKKgf5YOkT9zQsmLUMC5LiQY9DY8aOO8fOHnOWjTn7LDvrrDO9Udqn3vyee+62MfKvYAIoP3cDuh2Fsq3IdLyWIeGcDi/KPxUrh7zvaQOIn0YCfwqgQjlvaoGQUg/Z15gReGLXUtDMCh5taPCzE9hrxC5VTJUxY8Z4K71v/17fBUtLXJZAr949bOLE8+2v/vKv1OP9hfcwYaImhPsYU4rHEh1/DydgXECPyXKoXTL3iHPffffKZJzuFYbeg8rGAtahw8IuWYeQBW/hGXN96998y1faT2XvkvgNg3jVKxXc3j37xGtoGF577XV77Oc/t4WfLrKJMicxOzlWYOZFF/m2i7ffmqtecbG9/PIs0ent6/zIl+s/DiWQqx9Q78r+3e8+aDfeeIsqRV1gSXYped6xe5fLa6xMPUycZvWqQ2VGAuwh84ZB4DrldCWfZkx5Pep5s0xGzMFJshBmzLgopA/uaYKX/alCnl51be8cukiSZr3QyQgdJ3Ma/P8pgEx4y4Bp6R5Mk7MjllXrtK4bpHC/sJ/85Cf2w4f/wf6f//e/27rP1vngml6Fgr300svt3/+H/2CTJ5/frpAhXdunp0wmtm0wWEVBlCYDa8Jkxow5e4ztP3jAli1f5oe8sMX90yXLxFMP3yw4csRIu0zjPFYVsH1itUzD555/3gYMGGRXXP45X+fnM06enufIzUEmK5gkwFRKRUNlZtJh9+7dvi/qV7953BbKpKOxePLJp9zk41M8TKJcNPMi4Tbb448/bT/9l5/7eGiQTL8zZIbSq1cr0751fdVA1Kkh6OvPLRrXYUq3aKzK+A75MN6jRaaS03Cx5YV8Yj4iT5+1k3M5iQY8NzW12gfvz3MT9aYbbxT9Pi7bCh54xgH5fQ6Zn0sKIlXy0REEjk4BThHd8Uv8tN/68Ydw6VctrOz0A6qGdeASPkAv5f7SeAqXGb9RI0f5uQtjzz3Prpa58u2//LafWIRygEsBs7IcRfZ4mUNKbExECYOJBt3wfoWKRa905ZVXefxf/vpX9oMf/tD+/n/+QANyts2rB1PrzxFnjCe3y4T83e+esH98+Mfew/zFt7/l4zoRFO1wdgLZJx16K+6ZgictWj94DesiW2VG7XMz93qNVx586AH723/37+y2W29zEw1zds/eA/b888/agIH97fbbb7P77/+aXXvttX6wy/sffCCT9EhIg/x5ms6GEqrxBbL+Dki1AXlSOeCfcxecl9gAWHwVwdiSMwKhF8ohmkBCC5XspG3ZstneffcdyepzvhctpR3KKcbjyi9d+RGeXB7u+PpL/hmdP6jL0jtdF6X1B4Qguzb3RwAveLFOBmhBqQThXYPZGWee4dsy7rnnHvuqTJuv3n2Pj2cGDgxK4BAvSVfKkLMd1uRhwsUZHsHo0aPt3z7woN33tW/Y9OkXKa2v2pduvVWD8EHqDTGPTvq090/++We2ZNkKu/Gmm+yh739f467p6gWDGRZMu6CM5EFenm4YH4bCQUtRbhqD+gH9NHju573sqOHDbdiQQXb5pZf4S+CNG7b4BsQd23fZpZdcbLfc+kU1JpfY3Xd/2UZLHh9/9JGPg0gDoJP3cbWyQ5ZwJEcl50pdh6PBg4c4b4wRPesK43AeaJ2lRoteDqLkB+BseO6ZeJk3/yP51NhlV1yuho7p5tAwFS4B2UxXXB5WDQhPcf6VQtCSPyTkQulKQIAEFBSoe0BhB2VkgiIm4BdmeXjpWutKWNenlwqdsQ5rxUgDFBW6LpxqdOxYo9v/IW4l4AXpMKOj6guBiEevsXTJEvvko4/twvMn2x233+7vXw4fOeJmEe6Axmyc3MTWdMZmN6tSDeddknoAeiVY4UUrEwhA6BFJIMiBmVbfeaxEnW8FnXWmWvuTLb5dHXwmO+iFmIbn5bfPIDI134c9VkFGmGq858JMA5iAaDiC2RaWICXljFnzOIELmaMaL56tMSiVn96Q06gAjkZjq82ZqqzsDoAOqzUwF6mU8MX5IOzdmjhxkvNNw1CUVQbuU/aOPFUF4VLJ0/1pAfSTS5D75f6nCeF4nm6Ao3UHN8f5AzBYBgrcf9I2WnQULAmagm2WmVWjkk5KQwjB3hqrtWQrOWdYcHzX2rWfBaWtAnjTI/rRaVIU35IBPRHja4Zvv/uuvfHWbNu+Y5dPHHz88Uf+vqy+30Bbs3ajbd+6W2Oywb6z+AOZX6+//qa9PfsdW/zpEt/iP2/ePHv00XAqLDQ9H/r5RIgcXxuhrpEmlYPdu0xGcBbhnDnv2fvvfWCvvjLLZxknT57oSk6Ffu/9D2z27Dka762xN96YrR5su02ZcqEqW61tWL/ennjiCR8LFtmWbLjHtE1pez71Y88WpvQbr79hCz7+2I9gY0cxmyLPOfdcx1u3boP9+le/8s2imJA0dhz5dqThmJ0/eYqn6y/bKQQvFBILFwdPPLoydBQWivv0oCN6ufs9IUwvdQRuGoS1Vm4qgVtmKEHObLom2imsmhOOv8/i1gUf/ZMrAeYRBQ5PzHoN0sCeVpC337zgZOMhS2kg5VTjlSR6q+dhVy8D+3Ub1nvL7kmAkFy6KICz8NhxW9+/X+BFAaTLwlGO7Jr34Qf2wx/8vZ8v+HmN3T5/zefVK4Y1ifUa26xbt9aeffppe1aK+NILz9mLz77ge45o6VllsWXLFt+9XORbMu4lc27ggIEhX34CTcjz2WePsT//8z9Xg3HSnn3hWXvm+Wf85KN77/uqnXHWmTZ0+BD7+je/IRkMthdfetV+/M8/sVmvv2bTpk2zL3zheo0f+9jRY0f9+AFmRk+ooUgNCskzS8jpTf2VV3pEtu8PGz7M7vnq3W56PvX0k/bIzx9z0+/ee+8LJz0JDh46oMZptZuITHDQu7NciWPWzht/nvIg4kl5/BqhRg2WvAq5J5dDeu7IPwfykhwQcbwRTJ4pDKhGAxAOrz78NqfXETidSCzi1yz6ZFGH0UJvEGbVaC27C7zQpKQ4F607TDFeYVDsm8nKAL8ZjWQqcqjhrt17fBzD+yRw2MsDfj07gAG0JYHiEZcXgY3qKY4eOyYFYpdtWLNXBs+78sExZ3W1tRqY93c+WzWmYLqbpUW840HJhkr5hqv1pvAokKNqpamwarhFKPSk0OupCt23b51XUmbFMN3gHSVnsyUVlqlrJjVY0TFwwADnBX/yxUlLe/fusz379vqMJ2OeoVJeGhE2eZKPY15xtvtWDHb3cg47FZW0WQN4UBWes/7YQk+uKSPMwROSPzN6vWU291YFBJiUYes/R8Dt3LHTl/yw/X7woMAXjSH5b2xsdHOR+PSWdEiUBTLz7Ty5eFVOPEKXDZde5ll4Z+rCpI3zrLzk4ONrf5dYCZjq6G56PVFUrhxKXqTR0HBEulHvMu4K0BF6d9KgsSeNmjnvzqkgGx6ily7BxGr1WbV2TOnRiSRiUTkxl2ihUDCfbhW4wrg9gxDaWg/+I2BeNrKaOMw0ldIpADMpzEBBiwLFJOJFbJi1Yl0Y8aOApaCAv0QV8D8sriSISiM+1bqmigpf/Dmv4om0UFjCQ28irpUOFRM8cPDnWDBMT97t8E6K9z0VvW+EkI4qni5haUsw+8gHKy0SH/nbeeIXMlY4jQ9YPJNnL0zhhJXz6sUVj/GV05IYOE4a3pjBDOGhp3fESB/lY7UFvDB935ujyVTutX1Y7ylllD+VhqKkURGxwB9OtzS4NAIcoMmWf3pW0g98hjQKZP4rjLR8Taniet5iWGdAHJIOCgy1kAL3qfwB6Cf5eN409ks8dQeOHGnwBgHrp6s48IS+o7sJaj5Z+MnJxEw1gCkKkmUbDm2yactELhDdIiwQi5ouNBdcNQYV5rU9CrhTUPQg2KDkR44eUaVSq6veBj8Uy9cvo/Owxo0ihakB8qJwFYik7UpDnIrWSJGIR5jHj+wWa7t0pVJ5hdFf47FGN3lqfGIhFAAVlfdMrMoGKVWuBCellBQAcvWZPtGjha+vr/dw6ISxSUwzQSRDDw2g7KTlyp7xjR+oqUx69QiVjjyE8VKNT4QUoDBMVok1VD5JC7MXGvRuUKHRSzTwdwskpkLZgUMD5JtGZboiJ+jCU0UeIsBbucwTRTcJc4hlABAHom5S5sCj8JJeJPCKKzl7T6VyJrwroHE42nDUe9xUpp0BMqehyXvcmsWfLg6SqgaiV7QoMgUKSOnEzDgkGso3igJ4q5hwctnyjCNMDmHBXLG+sCP62T1xOPiFlQ0odvIvcDL6QHqv4b2MPysohac4GSBLHDhZORX0cqgSvQDSLUCEnB5ekQ754JAVWkZXwDKxJLfoXyiOniU1kQk/D8v+F8rFJdHM74Fqz4JgDCCr6JHjANG7AIWjI1QqGoc2ZQz5rcCPtEIvwpaJknnYCaCLQF5RvYxyneEan0mD1y2FXoXoBYQoqL8YiHy6Xh0+4qtNXFdAIixdS+BDAho3WUApvI27TsAFBFEuUUlguFCYKolVBdDJGPgpTiSBiZFa14rwMu3sOVX4Aj9G92t6ji6hROsxFAQQ45DFWGZtIM+ipYqXAvSc8u/bsLgvxy+DaHmF4lb43uvqmtIo0qoGMO+XYNZ4w1VC9wqrfzhoFeUmf39OaekPubFlIcnQn6VQ4LS2slcr0o/xK1wVSGm2QazqZfxIAxO4UL6UDhDDi3g5yRwiTlGOCVI8QHE934kIuLgsrlsSyY8L+eCXZAfk1+S8zHWb8CJNXOcrKvjFezct0DoRwIwI/oFotxwFmn7pOQvTn0Phl4W1e45+7GKll8r92l0LJ9ryIwOFX7rXzzMmRz7b4silZ37pOTog4YV7KWV8LvwzYeOcvtPkEU/JEwUG9FiOX+H4UStlwqXKI6+2cKfrWH71ylekF3h0fNHwMUbES+BxVMb0BK5cxIs4XTnXDWjEnzzDXQkvOca5aXOlH3SJK+Pnv+hHOhVlFPOHToawWAYxDmZpgZtc+hFXPVmFizgKDjg5fv7LeMYsdrzIS7metweVGzZ2iwa/fG1wzZrPbNmSFbZ1S5hhqgCvc22F5E+BPwfGIOzJwc51PHQqOUGBy7/kuJSeATLR2HjMP1Tm5RlpVEDupwJsPN7oXwJp5oNnxEn0dX+8scnP+aO1TlBKsgKYnmbq3JUpk6LzWgLPV/SnHhR86coEDakUcsvDc4CGUCk0p5Eg3ufyBIfZzUMHD4WQmLhfFU4eDx0+7O/IfBX53n0+q8hqchwfYWDs5jRD1I4BlEg/jLkiQ/Hi8UMWA1Rc6d3SfbzmDkh0InhDAhAei4p3j2xa5ZoaGsAbHk9DHoke1+QAyGUulQR5KXCqQaIhR9QC9NDzwQcerNykmCASRExHpbxvvv2W/fRnj9gH8z+wJcuW2htvvOEnoZ551hjjMH6A71AxiOTKzAk2qfPq/8w31f3i5z/3tWAc2kiLA75nntbRqYSkUbZUSAjFlwvxB1LMzJy5c+xXv/qVr4Bm5QDYAVC8EI/u3eWjVoWTUx999DH/CNmo0aOcTCBmHvbIoz/zc9FZhhTSCQmlcZiTlzve1GTPP/ecvfrqqzZj+gyfraNyeQvPT9GIH9Gl5IQFf5Q14EE+TJ8DzP65QhAgCIWrCNCKeeehhUoYcdTaEex4/NIAntUaL730kr0ya5ZdOHWqHzRKHIlbF5Xn0QZ77LFf2FNPPmWz33nHj3dmg+fs2bi3/UDQC6Zc4Ie5gJ9MTecjBz26bPXP8+Kb+7Jv5UZ0eHM/4UIrKbvLRD+vG2TEIZRdAdwS5ukoy+hUQTcE88G5f/6nf/J3ecNGDHM84IT4ZdTJhku8QnqBTkEj3Rc0KZP4Lem83DsAz7t+OW6bJncALOlZtnSFvfzSqz6zc/PNt9jdd99jV151le8revzxJ9RKNHgOMcdQGJbY8M3YotGPaRw91my7du+3HrwHQbHEiOOQMV3Se4iTsvVFxX+AF0LOp9+zDaLFW1nesXDOBDNfaQofHK9YegSdsVRTU4tvoWAK24UZMHUPrSbbv+9gnI4O/uTFp7cF7hd5JeawYSNs/PiJEn5f69mLqWfwAsUYPYAeXOCRLW8cuMrBH1tG8IO/xHrinfzTUHiyMV0Ug4oZTA7w8EY+4KJI4IWelBNz0ysIL2pwFE695ETaFiHPvOgSu+KyK+zyS+V0veSSy23qtBm+p8uV2/8oh1CBAbIAT9CBBqXGtUblX5S5wHkhPhUq+iNT8sksHw2Ee+ue8+G5xyD0vMnPnfxSejQiAOkSh7wQzmwdPS8PvhpfwJIsXnGQBWZ4U7opjoPCGFc54BnI+8Xl2hk4UriFZh4/kewQKBS+IsiLv29961v2pS/d7t9luv32O+2aq6/1ZTC7du9yAfJStbHxhB1uaJCZd9D2HzysVp0eR3RIVMCFysOszNGjx73Lxh1vavX1ZftlslAIZKpFPV6oDOyRavAji4/LdEOoLPUhF33qOM+c90QMsnv4t3kxUzFxSBM6pMmqC2aamF51k42Ck79LQn+8U/NDTeh1FPfA/oOeRqMqG/e8u+BQGaJy1PGVV17p3+vlwBe2d2DTe1oqOdSMVvvI4QblMawxPC6laWg45tvgDxw46OYZtOCLF8HMnNFz851fGgsKivSOi4etW7b5p0zhx2dUveHq4S9dMWcx2ZgJ5X0JEenlaZPD7uLYY3teA1BZGIuyKPbue+62r3/963bf177m7mtfu9euv/Za66PKDiBXjgzYvn277z87rkYHWuT1mPK4W2WPOU+j1NTM4TFNRRlRznv37bcDKlP5eGXhcB4sH158N6mXBgfZblXvuF+4LZIVjQwVoEV0GlTmrdIhhg68JKdhJG6jdIcX8MycYhmlqXl0hnLlNQXhmLKY9jmQbqMaeF65NRxG3mFdozdqQSlOD2JcdSn6n0u8BLxvYeyQCgKF6927h3GOAd8/8riiwbG/zz/3ou/LOXjkkG3fukOFf9KuvebzdrmvVNa4rEXMS7AId9/Bg/biCy/6V9knjB8vkdc4jVmvvGRf+OIXfaXE22+/7e/HOBOBA1b4KuAFF1zoW8U5p5xVBBQu0KtXD9uyeau9/PLLNmjIELv9S7eKx35eQDBJmm5S4tSCBb7FuF9phRWuHo9epVGKwRZzVjTQArK9vlEFMW7cecWWcA6O3LJ1i3i9wWa9OksKddy+es9XVTHDQla2uXOew1VXXyOz5Gxbu3aNffTRAlu9epUvgOUrJSzE5eMBfOOXDx/wAXDWJZ4hZb/6mqv9IwCrV63xBa3Dhw+zyy673C6+/GKfvqVMWFO4du1aP6iEzYMcbMO2FMqKvKKwqekgq+QVeeGY7YNPXuqzgZEyRafshKwN5aG5scUOqGF8b+5c8f2x0jtoY88da5+//lq76CI2HNbYwgULfNvJWWPG+LrCQUMH+zgbvZg+7ULbvWuPPfPU0zZEvLGoeOiwIRoCrHAL5+bbbnV9+mDOe74WkfMsho8YofKdbJddepmNGjXcNmzeaK/Net0mTBxvGzZs8DWHLLli9/QH8z7whbsMJWg4jsikpbcknzt37hHPH9qK5ct9NQifV7322s/buWPP8VUpfH6Vg3VGjhxtayS/Kz93uV162cWuCt5LIodTAsWI8gXaz/7BmDMXHK0dh3ygjL/4xS9sljK5fDknBB2ycyTkO9RjnXPOuWo1m1wJXn3lFTuqFvrSSy+xEcNH2ZNPPm2vv/aahE1rwDFd9Aa97LDMj08WfmL79uz1wqdNZYnNJ58usW07dlqjWsQPFyz0+BvWb5KpNUnKVGuvvPKq0lmsFl60evZ2HlGgFctX2j/86GHvJamoAwao0tEUoSrCQQmY8fI1Z/QmKJ0qJcoFDYAeoFk9ctPxRinLSnvq6af83ImJnAAkRX7zjdd9b1KDep+1UgwOVoE2reN7Ug6UhZ6Vo80+Vt441Yhz8FatWmWPaDxKq37ZZZfYubL9Z732sirjy9bUoh5NjRDnbfz6N7/0Y9f4UgafAn3+hed8KdX1X7hWlb3GXnzpeVuzeo1a6+N+HgfjHyrTVVdf7T3X01LgDz/80POVXmqjJJQdsmBVhffgshKErl7zkH22YZ2tVR7Xrltv61Qx/Ptdyh8NGWNGxtITJk202++8w2r79rHf/va3Nld5pefgyyV8G+w1jd0wtQYPGmJLZdWslDLTO/BpWA7dYbxGb0IvtUBjVxqjEyrfTz/5xJ55+kn15E12y8032dhzxthbb7wp+u+KfpNvzPzwo/nSgSfVqG71hmXDho32c43Lt2zeZueNm6DeqEGy+1C9/+GQV+XtZY0n333nXcl+sM2cOdPXWPJNZsqSXnXrti3+Cdbnn3/BG9JibxiDXkB0kv57XWBWEJf75+Fep9r8QqVKFckRklOBSB8xl9jshqlDrWeV9MM//rH9n//5/7J/eeQRW69W3I8iltLSwvPlwDvv/LLddNMX/dMrZ519pr2jQjh0hK3rakF9o5sIq1anrjpUcwofBQ0Fzws7xg7DR460++6/z26U0L/553+uVn6gFGGtHZcyQqtZQlm2Yrkv9mR1xdfu/5qNOfsMCZh0UCxWLSAnlvgE8y0oWZiBpLIlYIBJRQXnuEwUCuXee++12267zf7sz77ha+127dqlBqJBhS5TTiYXtFhcyzKfz3zV+0m1lHxNcK1NuWCKV2Q+goaS3nnHHU7r+uuv99aTA1SghzkDH5yK9J3vfMcbBc7I4CUkJ0LR8t9///12lXohtxbgXzLCDL9BvTa7jC+97FJXbHiiLNK0M7IE/F5+DNpZNUDjsUtK+7Of/cx++MMf2j/84z/aD37wA/+4NjOBnAI1TxX3ohkX2V1f+Yp/UO7uu+72NXE0LJix8Ix+3PnlO+3faGjAATjsXKZXYSZ1jXpnVpfAM40FZi89Np/34bQiZMMXKtn/dvnlyoN6KMaM7KRmZjdNGLAf7rsPfNePN+Or+ayr/MY3v66hyK3i7S73r5NFQ4VZvXq1KvICr0xfuv1Ldt2119mt6hXZ6rN06XJrluz47E8P8f0V5esvv/2XNlFlcQJdZAjhjU50wvXXEvy48pw56gt6jAq5fMFRvB7+4k/MuNM9So2yM4VO60KBs5ri5ptutr/7T39nDz30oN2hcdWkCRNtobrYH//DP7oCtahbRT3Hjhsr5a5Va9rsLS5fPGdx5WEVNgkXA0MxCj6ul3uiCK1eAExyMEHCGAd6KDOI/fv2tUEDBvk4o1XmSV2vPnZcY5Cnn3jKDuzeZ1MkXFZHq2qom6cnwuxThiUAN4WCDOTotVgPFvYDhXoFbpilo4L31lhpwoQJfmgMvTUrxwcPHeIHtCC4sCYwKCzb5/miPUqESbJSvRzKffHMS7wyrVMPxhhrvnoRZuU4vgxbn4Kh4lA4rGHky/KsDGfW7awxZ/mV2c1HH33Uv654zrnnyGoY59s9pl54ofdS77z7jm/n4Cg1xljp/AtkTb7zRgMge2FNm9kAVZB7v/pV+4u/+LZ985vf8FXwt0kBWanOGIoyHDdunNWxvlJ0+JwOh7ns3MlX89WbqWFh/Mt3v1iBQB4uUEOyc+cuH+dxjgUNAjJE2TER0SfOR2RpGSdUXaB8LFHv9uyzz9rj6gWRR1jsG/jGRAVv2NDhXoG3bdvqvT80kcPgIQP9ODr0iXWL9EZ+iI4atnmq/G+++abLDkuDRcH0sJQzvNIIkFfyxmQMwwJ0kPdn4ND2e0dDL5WumUMPUr1JFZG60wP7nPVj7sQ069LISO/anj4OalZrMVstLQIZOWyoTZ0yRWOaL9qDDzxgf/1X3xHxE/bZ6rUy63parx69bVD9AGeYlptPZ8IbSs4nL1n9HBSagahKFa4FoaJFBcAb5WdliUwYvh/F2jQ1WKLJ1DOnJKlP6aUKKtejd42NPe8cO3vsGPtYlXzntu1u2nCyD+MslAizjpOV+sRFqygLQFIJwviMdMKRYOTHl9yokqflOmyXoCKw0BQZMamBcg5WReZINHodtpFzDiDT8mNk72OGkc7gIYM979j0HAwzbuw4u+qqq/xcChSTghmixiONczhT43vf+573bFTI12RCcx4F520wscERas8//7yfAcjnSTm5ifzRCzmIMcyhBHnlIk80XqyQn3LBBTZNykXLfvHMi+2SSy51paXCwDs4XImPqcThNph2KCnjXSo+pwD7ZICSmDTxfOGaNzD0OJNU4diNvXLlSpnMaz2/jDGllvbB+x94nsBFJperhx45apTP5lFmHNOGsofTYsNYlUrpGzGlX3zrmDE8PJAocgQHPaZxqavr65XDTeSrrvQGmoYe/eM8xb79mIyh15KGSqdUGUSX7ymzlpNyDycLc00OuRXO8TVwET2eQ7rqgV3KyL4DR81jQMzenEPMUMkT5e7Xt5cfWaU+U8MU9RqqgCdkXh06dESJ91Zt58CS4/4OgU+GDmD1siu7BsZKHEZQ0Iajh1XBOKoYG102r+iJd+sjHNVYnxqmsFCJnmIYuggwjRnYxnCfTL67777bZ4feUMvEmABTx0ERSVdRvKVF8IuXLPYZKWggKMwdDp1EMOxjosBRSAqQAkAOUKPH9oZHystsHRXB89Snp3/Sk4JHUTbK7udrhJxyikKgVHydhC8L3iIz+qabbrHzxk8QRSo7ZstJn+kL+3g0rlPlZYy4fftODcxvsL/+tw/Ygw99X3ky+3DehxqrbNV4ZLFNvWCqzK6/sFtvvtXO1biWNopZsTrRpBfmucdJ1FI/XaUeqmv02LTE4Z0iuygQJRs7ORK7Vh41SmiEFJHnrVs2ik6r4zVrrLlPZuE5MukH0diJW/Bx0i3rJ5PurDFn+DtDxnxM2owdd65/AXLz5k22aNEnMtXUq9X39XHku3NmS5419vWv3y+53Kwej7F7GAdzDQYMDa94o5EVv0x27NmzU2Us81PhjC83b96onJ2welUUwtkUyUnAN3zhOo35b7Nrrr5SMqGS1arSyRyFX9cvVSgazKQqIqgk1KBH/dK96548k1NCbS6GF8C9/Dmp2wdoHTm+7jd12jRbrxbyycefsE800Fy1crXNn/exvfzyS2pdh/mpqyghKxbmzX/fXn/9dVuxZLk988xzUoDN3hLWqibSimInN2o8VK9WedSIUTZnzjv2pgaN782Zay+8/KIdOHzQBUhOOQPBWwB5hNOA1FqKY1puzDmmb48pzR7qXRmjXHP9dT4QZlct4dDwblu8MXobMmK4TKwrbM2atfbUU0/6rBbudzKdlqpSTZ8+3cdsFGhLS5NXGM5kcHtZioUfM5i+u1iyYdxG640pMGBgvfcY73/wnnSw1Wfi/Px18Ub+d8skYuC/fv0Gmz17tj0nc4eBOL0XYwSuTLhgstGQMbvHpM+cd+fIlNrr5iKN1GiZPZiitNCY1Xv37PVPor768qsuW74Txam1NFicjITM3P73PMgakGLANxaK90D8hOOTOBFQKkxNelOOgmbygxnI119/ww4dPuRyojFiXEoZwC9AI1SvRu7cMeeoB93mvdSQwYP9864oMZsXJ8mkrpPVwrrDwRqzUk6Mt1avXOULCpAJJmCTT6HzFcxG6y1esYi4fk7jK8bbc955x0++feO1123e++8rbcpJw4+x58hKGKmO4H2Z2/Ns9aqV9uTvnpCZ/Lb1UVn4thvRoiGnnN1MzvSd+YGkM35N9505ftlzzwe++0D1FRURMHFoaVGqBZ8stMWL+Xr6x7Z21SpfWc3hilOnTfV3D3PefdenwrfJJFn86SL/buwVV1xuN6qFxhTcs2u7bdy0wS6+5BIbMWywlPaEV1Deg+3Zu8emTJ7sCjtt+lQbIOVepLSYvp7Cscbqtpk92qDxG1PdF154ge9iZUB8tQbwTPEPl+mw5rM1tm6j0pgxw/r1D8duef4kTFrwM6SUfBZz0aeLvQIuWbxEA+j9sv2vsFtuvtlXh6AkmCusvJgoJaBik/+ly5a6kkyaOMk/3o0ZiZmGucbsG13/BqV9iQbc+AeToIdvSec9H4PsD+d/6HY/2985K50ZLb6WsU154XTXocOGuVlTJ+Vkxott+nx3d5OUmqPRbrzxRhskHilsxilU0NWr12j8N96npDnVCdOTCsfKD8Y0DOK9paXXFbRqvEz+qFAXX3Kx98CEoRAAtP1UKslz1epVPqHCpAWvNZgU+cL1X3ATnzETlZ+xIPmn98YkpLJx1jwymKCKRY++adNGD/OTc4dwDBtniNT59DhT85zDiNl5vmT7meTDOJaPHWzZrDQvv8x3dFORhwwe6o0zFf19VSbKnxOqUGwONOVoaQ7+5OhpcPjaPxX/pptu8jLG9N0o6wn5QBfTUc1NkI2yjwzAh9ckr87qB/g0Vr5IIKGzn6rTSBIwLRCCYfbmwMH93tL00wCPhCkQehTWkP3X//pfJfQrfHbrgBRliMYRw4YOs17qdgEmGKh8mESYdrTi+/cd8E/JYFIhVAab/i1ZpbH/wAGlf8InH+iyUQZe6GFC1qmlpuWT5voWcnpmzB1eUB5Viz5chYBC53k70YQ9xNFb4XCSPWoVUSN27cJTGFd6N6kW+aC3rlQU7GZoMyPGOAuFSjN/7LsBEC4FRSs7UC0wPYk3/iQgRwXcrErChwWw8Tn/gW/uAocPNfjLYL6ty3hROun5OSAed+7Y5RYA/LGFnStpMTbbf0C90t79rnD0sGylOHjwgJ9vGHqQVm8k6HGBUGco7hrRlmzlgcxR1hyQs5s6+qOHZNUKExM0MkwUsRSJPDEDiD89NPpBOfKtZO6RD98cZhqe3ohyo1cfzDEBSo+einEby7Q40hq5IhdkSm9FXtEv4g3hI3Lwpfwgeyoyu665nnnGmZ4mfFAJ+6ohxXxGDju38a6UszZG+5gWIO80zpiNHMcALz7uj3pC+qSJnGkoHDIdKgP4NMK1vaTjCb3TSiXBeSR1rbVUDD1TEB6kyuatn36ygO2gKtx/+S//xWZedLF99d57Y+uYFVaRhuzjkwze1QXLj5lvWoRAy5Nwxz/1xm2M5jxKCJhKFNwAPoMZ44aIGeRxFHaCqVRsaP2lfPDgaO7nHoJKQqEVD+QIgZeAG2RAoXDPL1DTfycqqCTlj05L4aBIjN7CM1DnFCT37AzycMX1sSP0kIFkBS+UDeMPglI6ug1RY/yUf2+Nox9AXCoF/t6YCM1nwgJ6QSjtlQt0eHnOKpQDPqWOjP0XacMHmeaHwdkVELeMRjpJvu3CE28A/vlzgoSvsKKcknriJwe7f4hKlch2CC60RNSv4cGzqDC6YhKHOLY+xxfjX8w8CT2VW3DhwQXOc7wmdMDx9I9K58/x6gHgiWvGBTg8UrCHlQG/xEoN+GUIhcVf4rPNN0QMipOeAy7gPrRy4od8hUIouOkSApkwKOfadWm0B5eNBgp+dYK6p6JzmwD+CE+uS6ChCPmMWS8A2uSzLb1I2xuWlASNUAj0CgU4Uhsk2VYDDyM4c+iJp0vDk+REWBnKfiSbiiU5QUUa8oveASoeTh1qFi5YmGllCZSgz72r0L0mulcoNGdGQGVKwHFcrHpg3IHpxFSl40XG3eXPCfTsXrkfUMbLIJkYmF/OTwLiVAP5MzvJok+v2DmkxzxuNb8EKUxX77G5oeCEG5RJPp3FB2K4t4xHDruphPnp0FEcINEFEh5+5TiBjQC6zx8roFSRyY8P5PUr+EkAkZQOxDKCmGaYYzSsmFR5L1VRrrGWuR4pcQ/LwzuClG4Zkn8pHx0C+NXSi3RSeaSDeBw64e+0eqpEMPFeKHD0SLNGCJKDE0fK7mYw6CuQ1TFEHQvAfXrO/Nw7heUATtmvGqS41eID8g9BGUIKA6rFLftFfJQBcwhhonwoD37BBMygTC+HLG1XPno7rtX46ArAJ+1EU8/I0r3ln+67C0WDQ6TkgHQlODn8Yr7h3/NQAmbbiijcZzjFjoIEKY0y4F92QLp2Bjk+0J7FAPh3h143oONKFRNI3XibR8VFV+z3QCbhMt1M3fMzuV2amQOVKxD9EC6D2AIHKKVThlQ4pN8pEOyoTJcylpNHSgNeSo4vlSYX2utInzjg+G2PilYsNDTCdNSsH6zGWgx0ZcfRM3j+aYFCWKeAHuLAjfh+KzrIP3Eci6JjgP2YBYdEL/HnD4KUGa65S8B9gaqfZFFRuUijxItLSH7eIyZGyVNOtwowdudX8NYFIBN60C5lkcK7SL8qKK7nJ+VT+Qiv+ztwZNgj+COebeAdlILynispF4Nn7ly4MbiAjL67CIpV8eyg56J8nGC4bUcTKMcF8Iu4UdX0KA/8wmMozMylAgjKDlfB4S0d8FlDviyyctVaW/fZRtu/96A1HQ+rMTy7ibd0BbiPz3kB45XkWsgqwy2uAGhZ3BxyNKD8XAE5/RxK/l5Bc2ZzqMZLHr9Mn+cMP936BAggDyfJo9+UXLpkz+0gD4v3yDakoYdEu6M0cKcC5TgxK0DNRx9+FI4oA4ELgozI4RKEm1qfdE2QnkMh+K2uIYUwoA20k/KkS4LkjznFe502tHBTkZ68/Fl/tOy8iMSGJ57zqEpNZcihiC9vjlrLeSoXNnAC8gp3806OFRXMYuK3ceNme/bpJ301elPTCZ+xY+r8i1+43q6+5jrdp3FnIi3zMHYHzhe0SFq3bTI94dveeUXBmrcUGdOZ4IQPQCNNisQEgj+/iARNmg4Pw8/TIECPcazEzGAg0TahADhP+nneVYas8EjROwKnoR9x8vLw9Ekz0uSvAIURh16E8vAp/YhfhiC3QIc0AF/5kBpzQZ4HTyuC86V8+DskTzP4Brm3gcss8sn8AbN/hV6V9Ckj7wShT1w/TzIm4iXOg/8Sc0T0yCGh5J8Sr3BKNGXWKRZ0Am4qoIRf0I4O+kUaREs9oNKqyLwHh58/RvyCLt4hqAI8XL8KHoBEOvKRXEgy4IirsMpBcQ4eOGDPPPO0v7jlZff9X7vfbrvtS64YTz31jH2ycIFv0vNV9nL4Y95wDSZISDs55BIW+rKAU+GSo4chT1+LddKaxXNabe4O3hRUPJ+qI1MeX06VlrRT+YUFx1FO/EAKMTqFSDXg80c6OH5OI+Ak/4pn/bwhTL88rwnfy6MSyl5JV1xfCIwIFXpFkLsiMDiBUgpXhit4+mPgyyHhRvwC9Jzo5bg1Cz5eAKUOwQXeEs9nC41ul4AyAWH/km46oQ8UaTDb1AVuAtJILxvz8U1H4AouJWJWshB+FYii8QKmQgG0iuzJ+W//93+zz11xhd166+3+chLktevW2j8+/LBNv/BCP2McupwJwXu6piZWRMeEVLgs2Kyr7W3sPWOmrI9aN2g3q7caUF/vs0hUKBaFshqCFdUs/OQsc3bEEoeKyDpCFoY6s3Ks1uD7UyyhYns+M6L+Erkl7PUK28qVjvB4ZqFpv/51IX4OsCo/KhYNQW8OiOxOmRNHfBXvd/KeJ11LEMqjm3qlYkBpSYN8eHkn2gmqpeF6lZV5wge3Cj4AX8wqp/MLu4pDGsjUZ/9ieM/vfve7/zncVgdvMaRg/vn7Dhgpg7cOgkJ5u4hXpEFhnEIarFLwr0okU6CTuJ6G2HLTpDtpCBeBASj+zh277b333rdx48fbjBnTjRX8JMtSm1oV2qgzRtuQISPs1Zdf9pUeHEKCGUzD8s47c2zeBx/a2LHj/GuI77z9tr3x5huiN9c2bGYH6gjf2rBq1Rp79rnnbe++vTZ/3jx7/e23NGbbK15q7AOeX3vdFi78xFe4nHnmWb76g+/8vv3WWx5v7ty5tnzZClcilkZRCiyNYusDO2v5aParorFp8xYbNeoMGzQwnIpbQJQLChzKvJuyEk4oj7i8B8GkeB3ED+XRTb2CnGSQoEKvkqsCnoby4SZ/0pEcqnilfFQcxJPwOsAPuhtlJff/60rVTOZPqVKdQhrKArlIM32YYZ8u/tR38R7ijImjx7zn611bpwp0jh8Cw2zn3HffkwJvsJmXXOytHTtTn3nmGaV9wmbMvMh3zu7Ytt0uveIy69O3r61Ysdo4y4K9PeyIffGll2zr9q02btxY9Wp9VPHes/nz56vFbbHzVKHpMVesXGHTpk7zpVyzXn3FPlTFYQEvC3cZ17Amjj1oI0cMt3nzPrS3Z8/29YUscEVWixZ96st6zp80JVgH5BOZRLlIUt2vVEFILtuKSpWFVYOiPE5DrwDXrS7A08jzUXZVIOWjqFRAZ/iiH/IR0xCLlZWqihDaGPvXV6kwkdhB6nYw0ElcT0PulCqV8NMkBRMJZ44Z48uxfBHwokU27/15vmW+l3qrkcOHS8k5BOaYKy2bM0cOH+ZfcZ8/b77ddMvNbrbNmjXLRo8aZVdedbVNnDTZezTW8Z095kzbuXu3Ktlyu+3WW+3WW27xzXzsCiCfHLpz6WWX+3pBttTTU7Fw9ZnnnvVV42x9OX/y+eoNz7XFS5f67tspGvuxTZ4V8nww+9rrrrUpF0zz7eTsLGZxbF3f2rBcDPlESXLX7UoFxPjko2jkkv53EL8oj9PUq0Lhcyjpr+PrrzAXuwHEqVqpOgBkhUWTV9zuf/OXXzX/P5hrm0jornOJ+V/mH1uOsgtQPSx3+lc4FYUuMgHVAyG4ceeOte9+5zv2f/zdf7Rv/dm37HNXXmlsu//1L35pv/rlL3yLPR/nRrHYzXrw0BFbumSZ8ckYlL1f3z42Wb3F+nXr7Fc/f8zPqCCpCy+c4uckiHmPy/ev+OQOs4vsBJ6gynWOKml9/742sH6AtTbzcTv2Nu2xluPNTts36il/w4cMs3PGnG379u4R28qT+GbPGSvr2bg5SDRGjxhpjUePek+PvJS58GK2A9m1c2W8+FxMBuXhHdHsRpm1c12VX1fhp+rSr1pY5miV8mf0pjoIlwGiX/nn139lAFtkCkitSQetSshwfDgFoLFCMZcvXWZzZs+12t59fFX2zEtnqnf4iv3t9x6yczWeWrFypUy9QzZ46GCZaeNs/fqNdujgYd+7NeWCyTZw0ADrV9fX7vnqve6GDh1m69Z9JnPwN/bccy/IpDykhPjih5iM5tMJlQ5HC5xU7xo+EWQyGevCND95Z+ZQjrM5yDeTGVRgjkHwvHp7cNJa+IhbTZhtbNEz5zRQAVI6Dtxmj51CjleWaR7WJb3TKBBBYZl0A06nzH9fqKxUZYEQ6n761/18/OkhCY5r7qpBR/4dAGMpDkvZIXPp1Vmv2NLly30JFmYL27oHDh7kR3QhKmYw6RU4wIXJCkw9VqBfe9U16qXqbLPGTJzwe+aYs/w8iAcfeNBNMPYpbd+1QzKmlROD8Ch5+0t0VSA3X1hdrwsHlmCucUbGYFXMnhoTsbu6qZFNlTW+hWTblq2+g5kPWEMMXN/BDI8neTeUBBQmYk4ZchmW9SKFJf+OwnMapwLQSzS7RSMinW56pwFhRUV34E/IVHehYCnnrVyIvy9Ig9lpOnHieOtV29N+99QTNmfuXFuhHmjZqlX24iuzbNGyZTZRFal+EN9mMjt/0vm+lZ6DR9gjNfbss50vDkdh0uHVl1/ybeqHDu33Xb3g8hlUpnPZNcy4z8c5qggs38L09J5W7Bw7zlcgG62nKsxwjq8eNdoWLFxky1estJ2q+O/OCTuFOV2JMRy9U43o0mN5BaXp1jPv0ypb1FOAajJ2vxhQDofx5IB4DTn6E0A1fv+IEOSaZxhod69/MJb7dwTgpExw7SpD4DvdU8+5xyinkeiVnYNuwG3n3zGkmVImFDhxaODAeu+B/unHP7JHHvmp777l4Ms77rzTw+jFeFczdeoF/o6JA2H69u/vSbGR8Ibrr/cPTf/oxz+2H/79/7TNGzbYtdde45sFe6mijBo92t8PYZ3xHotNniNHjtLgX4yISC/1WsNHDvdt3xzK8pWvfNmGqrf87W9+Zf/wD//oU/dXX/tF+9xVn/fBM/ubhmic1YNzU9WTnazp6fwMlZkKTY2E5ES4LMPTgJxEBRCQHBCvmHFFUsVQowNIcU+TN49P3OSqQdk/x+8gDuNBh8SfwJcpFQnmjMf79NKUF5IOWeSqoLjF+x1m2roBFWl0RT8CcXw5CVs/MG06ixd58peN5e0MHcRLg2fC/SU2MhGkY5s5gquWWT8N+gfV14cNfcIlyrHmZnvllZfsvbdm2wMPPmRjx5/n2yh8fNPU7OdwcLYEvUi9lJ5PiPIRcGadmEDor0rpFUvpHVQeqRyc/UA2m9TDcCItu6ndvJPJeeTYETc3OT576KDBfsCNvxyG38NHfMZy5KiRvksbOfBSmbSQXUUZxTwGWXXx8jfiJkBWlEfx0hTIZZvjy79dmROe45dB4YVeJfpAR3HAV8vU7ZfYkT/SqHj5C3TCl1sXiuMffUvoMkcCuTxTMQEAYTF1S8FWfYFWBsV1ZYz0fFCZonHNaBcgfzLvitkNgCbmC/teBg1o20+VpkArzIp4y/iETY0cPVZMlQLZbREN4eieSsgNwiVN0qGH4OBFJg5OgBgFSQ/CNm62v+/Ysc2/SD9BlenPvv5Nq+0b1gRC04+c9h5Dj3rmXO8GKT6mWh8UjMrcS2mRNHhKl7LlXPHwOiAcB9Cqilsjc5STfamwfgikCNL79GgVDdF3uejPlZH88A+Qf0+8HD8XQAD8idPhi/JIpgLkxzsytrR31ph6msgffqJeVU0jQoHPPbLRlbEjfv5UjRehU17EpeKSjwK/DCUv4rBSB1Pd1/5VTSADyRFZ+ce9I2rNB+9/UPDmefV7SjSCnj2SBMWL0Ji/9iA8GKdg04LaJIx0TUAabSCllYKy2JWVAGQKp1gh2CE9p4hKR8KiUqWeikzAX4C2BIJ/COfUo1DgZdoBEi78wIPPkAmVgoclChPzDqVmec2JxuPWU/7oXqt4OK48sIJh7tz3fTqck1eZyiYFTxGavsXlpDWLF96BsXO6SXTYFAcHTGv3rOV8wtCSn+zBMdlUJPGiKxWatYX0en37hfPuWASsrocUKCFfjtRDFbQGeerHeRC9Ud6YpxM0CExYiDHGbeAkIP+hHFWp1ACFsvAA2IuY6X+QV4Kip0J+EacNIgGHcE+jlbbeJ1rt4wWeAOdFfzQENHTeWFSBnJYfcc0kjyDQCfcBK6SV6AP4scB5oDfW5INF0W3h1QC+wvFyiq37mo/my/wD8sYFn+DrwkXh+WK5ZF0VyCtBzqYefNZKz6EikjnH8v8B5JvRQjghjfSl8ph1/YM2cSsypls3/9ihKVOprdK2YZXThC8KkaU9Oa2El/ySoLkym8cdPSjhAYNj0vRfcnGlBEP3hKH4Bw7us2NHODJ6kA3isBEpmIOTopLGZ12IC09H1VP5N2ZTWBt7Hs19A1v+9QxWVxRrzeQcxxnhL/BCBQylID/Ph7zk53QIo/D1S/lNwLObNOLVd29TQUIhOLgUIOtp6TYk4Q1AMsdDpYphfhNdYMMB+hUmZlsSDiTp8SN9wsEn/dQTeh4SA1wSjZgmekWcXq5Xwa8rgC9fUyq9Ksy/SK8auO6qPDBjU68fYnWRWKFQ/EsuA9cFudSChO0SwQX/ENbmiFTp5Os/x8/9Y1znNDmAMH5ZWh4v4pTTDPhyIPlNpIEjvIgX8JULzwcKwi/gBDzaJK8AyiutGd/jqqFHkV09aOBQG3POuTaQo6rZFIki4RRVXY7HdyfACyiUVh5JLxxiko4Y44VmKqsMuniFAhQOP/CF/ecvdAs0HhJBbrkHP+S3yLfnJ6TieRRaHs5zcgQ7cC96/Nqew7VwAPjJuV8MSPwnkLfTJpiwGF7Qj1DwAyQaPKe4cqHiRb/uQBVeijQSJL/MFZVbEFZU8OOaXP7L/dI9tm2Ol/xjGLXdcRJeNxxxPB7P1eiWXVfhVVwwTaPLf7l/tXB+1XCSy/PJLz6HPLXf9pE7X/WQ0de/4v6UXKKRyz36wQcQfdp+KW5VJ/zull+RXlDi7rtY3rlLfFXLh3qF+BR+KU7CSX4Z31RELKcKnM5+MV6HrgqOvCqeaZKqQ1YLAY+cuu/Mvx0k/85wAEogteIRyi1RhyA0x9VfBV9dAD2P43cDQMtdp5C1jICbvbTccqFHawvrNnQHP6WZ45b94tXzTT66yguQ4oRLJZTo+jUiFo0113QPpHSTKyAiJfw8TjU/oB0NQRknA6l5G1/dAeEm3Sropvv0XAVy+QbjtwtwxqDYzS60W5UDlO52yVWgw8rRjfx0D6KECtcNiGjwVvDXDVGcKlAe3SYs1FTB22Wj02fKvJvQGWKnRMoMdAHQSu5fFaDxYiry9nuodXXwCpuU6hRl9scGn3JOme8CkiIWCtkZtMtnN+J0Bl1E9Tx0JtyOgrrTY8a4XnG70o6UTplm8s/5ACe5AvRQjptDHv9PBUqz0N1uWkBl+INXqn/NgPmnUU58+gNCUox49fqUXHehROOUICkfV1x3aZTxsudQcf8EkHgHTjcff2hI6Z5m+t3f+tFNp3/t/Dp1/Kr5d+GAav6dOd8e7yxWDz9tlwbVuauG14GryEs35VHESWml62nKs6rrTj5yHN07X6fCQ8L9Y+bjFJ2SDumfJg/MFncJ3mqdYq0tzB/knLsyRLSKNMqdSQdxT9XEOh2L7JTNOKFLtPFBQF5y1xFUk00VSLQpPIfEHtdqrOZ+3UwDqMhDNwFZeTyi5tGr8eXhKKE/teF0lA9Bt3WqDAmnHC85IF0Bksmfc7wyuH+ltMJERTlS+bka5PEyB3n/xVqLX1WXg55TnHZhHUBV3I4KBDzQUwnG5y5dBI+WXLmSpIoS0+7SbMpp4YB0BXL/BMkvupAPpZP8gHRfduLPW396EVgrh3fkuoIch3tnRze5f55eDvHZ8cNNG066r+KKFRTQzV0ZMr8iDSC77TR+ghw/h8hPCg9pyMVL25R6TjxLrKqSRGLVAHymkWlViriJXk4qMpAgYAuhjFeGPF7C45qUG0g4OV6ZZo6TOwBc9eDeMvKX4kf/dg5/v8SbHKrgdQhKv2rFz8Dl6o6H4Fdcc/wUrnQdnxelQPLvyEU+VYq6KUEHPDnIz+XVGeRxYxrdzodcKo9OIY8rcFMsxcnLIOFluNxXzUPuBX4JhXIv4ulSM++DeSrHnHIl+EJUlnqwyjpG7AwfYMkRCRWLJYWeWox2TOuR5UB8VM2Xeijc6cOcR47pxedEhwW4fA+Kb1mlN/8RPUBAK8BXRSsNlt4ATjvHrwIscQGpq3MtEp+kwa5b1gXyNUKHEh9lYJnSMfJR3z8ofhf4yMKXxfgGxBLkcUUqyQt8wFdSdwMoc/Zx+cfgIo2ugHWVrOD38mBFB4AIOohKr4O8etVW4alaPmK+OUjTy6MrUDwvc5ZCsVC5m0CP3nC0wfNRoavwlD06xDQ8H9nuh5pZr752ssCNN6nSQJS38Sg95xu4wkOdP+EUiuleIQ7+JIJ/Wu7SGaBIKHs69y9VqpSh/D4H4hxrOOYHshDeDkfspJUE8MCsH3yxlCihVqObQ3qDXyxTqgYp7/rzfKgQ+VBcjp/k2Q5i3NQ4FJUq+vt9gkjO15pJ4UmjK0j5C41DKA8g+btJWAZYEL8osH9UHNSEFvkqyw18XJ4PaIMHvwnfr5EG/t1V+BSfhhR+Cr0K3g6JB/yT7Cv0KslWEHD9zp+dVrjxMD5Gx4Jo0uU5h8RLgpBGXMOYyLw3971w7HMZoCVvZsxYwJl6EYcq6IlhgIRA8nMVquFGcCGIJmmw8tpbX/ATrfy+BMThw9ntWsYEeTzds42c1dp+sGJS+E54A+hFQCl6wi6gEHAmq1TQHcUnTsMR5YM9WeQDvhMu11L+U3m4wncTXBkFxdaaRL9D2YZ8tKtU1SDSKnrccgtfDWJ5FGl0E9juA2nfktIVCI+KnRZRF/lIrOV5ytilx/VPG/GhcF95Lohx83zRMADeG1LmSXcFNfPmzQuheYIJ5Oc9lSL6SaJVwh1yf+Ko4LkWyp5DFa+i1cpqe1eAwPwTmMq8p9MB/8nP0yDzeRrpmo/HAHhM+RBO1XxUgar5qEY7AwqF02UHsEo9z0eKnwB/QbAcQsV1KONVAbccBGl1dwF4V0kL2abtLV3SF1805qzj4zwOL4+uGqEo24qeqhvpgI+MikYxyqQdxOCQRqa7Cb+TtIhz+FBWHkAX+J5GMv+URufLlESs6BqrAUHlYNErd5kFdELKoTNeqkCH6XQEeQua84LscpcA8rnrChJOd3AroBsRyrLubho5XjlOB+URWmG5Mn70LgN16LShCr2qENP2Mk9xkkzKLoX7NZiFDim8MxAqatJt3Ypp+JWLXJs4OkisEPApgHeTKQPVlLUqdMBAB0CmCwF3xF47khGxm0mlLr7IS3ch4RI9z38ug8747i6cCk/V4HTy1Qm+j9G6k6cyjW7yUFEeXcHvIVsfl3WXqYTGVa6mh9n/B+GzoDatzW9jAAAAAElFTkSuQmCC&quot;&gt;" style="sketch=0;outlineConnect=0;fontColor=#232F3E;gradientColor=none;fillColor=#232F3D;strokeColor=none;dashed=0;verticalLabelPosition=bottom;verticalAlign=top;align=center;html=1;fontSize=12;fontStyle=0;aspect=fixed;pointerEvents=1;shape=mxgraph.aws4.traditional_server;" vertex="1" parent="1">
          <mxGeometry x="-244" y="322" width="43.27" height="75" as="geometry" />
        </mxCell>
        <mxCell id="SOp-MsYclCzhipOw51BH-23" value="" style="edgeStyle=none;curved=1;rounded=0;orthogonalLoop=1;jettySize=auto;html=1;fontSize=12;startSize=8;endSize=8;" edge="1" parent="1" source="SOp-MsYclCzhipOw51BH-5" target="SOp-MsYclCzhipOw51BH-7">
          <mxGeometry relative="1" as="geometry" />
        </mxCell>
        <mxCell id="SOp-MsYclCzhipOw51BH-36" style="edgeStyle=none;curved=1;rounded=0;orthogonalLoop=1;jettySize=auto;html=1;fontSize=12;startSize=8;endSize=8;dashed=1;strokeWidth=4;endArrow=none;endFill=0;fillColor=#d5e8d4;strokeColor=#82b366;" edge="1" parent="1" source="SOp-MsYclCzhipOw51BH-5" target="SOp-MsYclCzhipOw51BH-16">
          <mxGeometry relative="1" as="geometry">
            <Array as="points">
              <mxPoint x="-702" y="917" />
            </Array>
          </mxGeometry>
        </mxCell>
        <mxCell id="SOp-MsYclCzhipOw51BH-5" value="" style="fontColor=#0066CC;verticalAlign=top;verticalLabelPosition=bottom;labelPosition=center;align=center;html=1;outlineConnect=0;fillColor=#CCCCCC;strokeColor=#6881B3;gradientColor=none;gradientDirection=north;strokeWidth=2;shape=mxgraph.networks.pc;" vertex="1" parent="1">
          <mxGeometry x="42" y="390" width="100" height="70" as="geometry" />
        </mxCell>
        <mxCell id="SOp-MsYclCzhipOw51BH-15" value="" style="edgeStyle=none;curved=1;rounded=0;orthogonalLoop=1;jettySize=auto;html=1;fontSize=12;startSize=8;endSize=8;" edge="1" parent="1" source="SOp-MsYclCzhipOw51BH-6" target="SOp-MsYclCzhipOw51BH-7">
          <mxGeometry relative="1" as="geometry">
            <Array as="points" />
          </mxGeometry>
        </mxCell>
        <mxCell id="SOp-MsYclCzhipOw51BH-6" value="" style="verticalAlign=top;verticalLabelPosition=bottom;labelPosition=center;align=center;html=1;outlineConnect=0;fillColor=#ffe6cc;strokeColor=#d79b00;gradientDirection=north;strokeWidth=2;shape=mxgraph.networks.pc;" vertex="1" parent="1">
          <mxGeometry x="212" y="193" width="100" height="70" as="geometry" />
        </mxCell>
        <mxCell id="SOp-MsYclCzhipOw51BH-21" value="" style="edgeStyle=none;curved=1;rounded=0;orthogonalLoop=1;jettySize=auto;html=1;fontSize=12;startSize=8;endSize=8;" edge="1" parent="1" source="SOp-MsYclCzhipOw51BH-7" target="SOp-MsYclCzhipOw51BH-8">
          <mxGeometry relative="1" as="geometry" />
        </mxCell>
        <mxCell id="SOp-MsYclCzhipOw51BH-30" value="" style="edgeStyle=none;curved=1;rounded=0;orthogonalLoop=1;jettySize=auto;html=1;fontSize=12;startSize=8;endSize=8;" edge="1" parent="1">
          <mxGeometry relative="1" as="geometry">
            <mxPoint x="-20" y="230" as="sourcePoint" />
            <mxPoint x="55" y="230" as="targetPoint" />
            <Array as="points">
              <mxPoint x="32" y="233" />
            </Array>
          </mxGeometry>
        </mxCell>
        <mxCell id="SOp-MsYclCzhipOw51BH-7" value="" style="sketch=0;points=[[0.015,0.015,0],[0.985,0.015,0],[0.985,0.985,0],[0.015,0.985,0],[0.25,0,0],[0.5,0,0],[0.75,0,0],[1,0.25,0],[1,0.5,0],[1,0.75,0],[0.75,1,0],[0.5,1,0],[0.25,1,0],[0,0.75,0],[0,0.5,0],[0,0.25,0]];verticalLabelPosition=bottom;html=1;verticalAlign=top;aspect=fixed;align=center;pointerEvents=1;shape=mxgraph.cisco19.rect;prIcon=l2_switch;fillColor=#FAFAFA;strokeColor=#005073;" vertex="1" parent="1">
          <mxGeometry x="67" y="201" width="50" height="50" as="geometry" />
        </mxCell>
        <mxCell id="SOp-MsYclCzhipOw51BH-22" style="edgeStyle=none;curved=1;rounded=0;orthogonalLoop=1;jettySize=auto;html=1;fontSize=12;startSize=8;endSize=8;" edge="1" parent="1" source="SOp-MsYclCzhipOw51BH-8" target="SOp-MsYclCzhipOw51BH-13">
          <mxGeometry relative="1" as="geometry">
            <Array as="points" />
          </mxGeometry>
        </mxCell>
        <mxCell id="SOp-MsYclCzhipOw51BH-8" value="" style="sketch=0;points=[[0.5,0,0],[1,0.5,0],[0.5,1,0],[0,0.5,0],[0.145,0.145,0],[0.8555,0.145,0],[0.855,0.8555,0],[0.145,0.855,0]];verticalLabelPosition=bottom;html=1;verticalAlign=top;aspect=fixed;align=center;pointerEvents=1;shape=mxgraph.cisco19.rect;prIcon=router;fillColor=#FAFAFA;strokeColor=#005073;" vertex="1" parent="1">
          <mxGeometry x="64" y="66" width="50" height="50" as="geometry" />
        </mxCell>
        <mxCell id="SOp-MsYclCzhipOw51BH-13" value="&lt;font style=&quot;font-size: 24px;&quot;&gt;Internet&lt;/font&gt;" style="html=1;verticalLabelPosition=middle;align=center;labelBackgroundColor=#ffffff;verticalAlign=middle;strokeWidth=2;strokeColor=#0080F0;shadow=0;dashed=0;shape=mxgraph.ios7.icons.cloud;labelPosition=center;fontStyle=0;horizontal=1;spacing=-5;spacingTop=15;" vertex="1" parent="1">
          <mxGeometry x="-2.5" y="-133" width="161" height="74" as="geometry" />
        </mxCell>
        <mxCell id="SOp-MsYclCzhipOw51BH-29" style="edgeStyle=none;curved=1;rounded=0;orthogonalLoop=1;jettySize=auto;html=1;fontSize=12;startSize=8;endSize=8;" edge="1" parent="1" source="SOp-MsYclCzhipOw51BH-16">
          <mxGeometry relative="1" as="geometry">
            <mxPoint x="-21" y="229" as="targetPoint" />
            <Array as="points">
              <mxPoint x="-29" y="194" />
            </Array>
          </mxGeometry>
        </mxCell>
        <mxCell id="SOp-MsYclCzhipOw51BH-16" value="" style="sketch=0;outlineConnect=0;fontColor=#232F3E;gradientColor=none;fillColor=#232F3D;strokeColor=none;dashed=0;verticalLabelPosition=bottom;verticalAlign=top;align=center;html=1;fontSize=12;fontStyle=0;aspect=fixed;pointerEvents=1;shape=mxgraph.aws4.traditional_server;" vertex="1" parent="1">
          <mxGeometry x="-244" y="-7" width="43.27" height="75" as="geometry" />
        </mxCell>
        <mxCell id="SOp-MsYclCzhipOw51BH-33" value="" style="shape=image;verticalLabelPosition=bottom;labelBackgroundColor=default;verticalAlign=top;aspect=fixed;imageAspect=0;image=data:image/png,iVBORw0KGgoAAAANSUhEUgAAAIkAAAA1CAYAAAB1LMjHAAAAAXNSR0IArs4c6QAAAARnQU1BAACxjwv8YQUAAAAJcEhZcwAADsMAAA7DAcdvqGQAAClFSURBVHhezZ0HnN5VlffP9JkkM+m9kUDoISQhCQiEYsACfESkhoCor+7qK/Iu6K4oKqgLuhR1XVmkRGDpGlCqUkNJb0AgPaGF9GT6TKa/v++5z53nP0+eSSaYfd898c7//7/l3NPuueeWB3Oam5vbLAU5OWatra3W3NxiBQUF+s6xtrb24nagHtDaGsqoU1FRYb169bK8vLz2Njxzc8Hhn/4dcIY+8vPz/TtCLI/Qpnc+29pyrampSU++c6xB73UNu1O1RI9SpDLd2iw39Yz9Z4NWNaBNjurwnqvKreojV9/qrp3ZyFM7+HfowUv0B17B1paiBhxA5Am+gZycVDtVKCostJzcXCuUvPPVPq+tJXbp9aQfa2kJ+sikIeINj6Ar8qhfWVlhZWU9RVOUQro+EOuS1dLS6m2S+ohV6TJn9+7dHXqmMczk5eXz5ZWSkOwIg+KbZzCSnikjCXiAbITxhCjqRoj5HerrFUGR39TcpPc8iUKCVDvqtaAMuqFJBp3kUTvAnnwAQWUqSPVZICFVV9dYUXGRC7ctNQj2hGgGMgToTj2B1syO+IxkAKlvsnL1t62tOUWbeM9oCo+gZTBG+USIckrmARgqSkcfZWVlHWQMRJwBwgv6SxuJZwnaXyxHhe29uOBVubUVyy1M5WaHJNG0qaystJ49o5FkcCuI9XkGb9VseYXyVvqXtvWOgBEg/Gbhb5Hnycsr2MMzRZxJyJrn2ukI9I2hUObml59rtVU1VlJSEoQdO+oyqM9Ut9CQK+z04d+J/skJ9IUy3kmZcgAHsiLFgZHJVxKoD6C/ioqgDxQfIZtcAPRHirNHJuSoIRA+VIHKKLAQN6jvZFk2oDxpJEmigGT7+B77KNCIjUIEREyHflolWMoZnc0tzf7OCKdOHMHgdAXofzlSLP/IyyQ39Kw6qSfgU4y/6H8areCuqpGRdCuxfHkwyvbkO2AKrIQyqoTvju9gj1MLgId2GaiS86K8iD/QnNmXtU83UR9dAdpUVVX6dJNpJBGSuDJ1DiTrOgcUZCuM0FXiANpnEhPbx/f2vD272gO8iqqCgdEd51gMKCII+KgT+gGgATcNKU5OKsVvEu1cUclpRaM2AmXJhBEzRWBc6byQ8tR1sq6XQVQHSPEOnRlFe9ZNw97KMiHKH/7idwTvO5UyIVsXsS687BWyIfykEAkmQCR1FahKMMn0w2iEJqYHFAYDvOdpxEbl5EEz87j64z2ZYh1SEsAZBRwDzs4gCg9aWlqalBMaKKv9SYr0xUT/wajC9NYViHTtDwT6Uh9dBLrorJ9MWe03QBAQO0gLMFp0OgH+TNGiXP+bTvqbUZ/89NgO5UmI/WcD3Gi2+jFlfsf5nzbJOhHiN+Wxbqyf2U9nENsAmfizQReqOGT230VyugR/t5HsC6KwOyZ1zB8XbmDIE1mJlAm+2lC7ripkX/BJ8SR5SX5/UohGlpn2B+g/aXxJ2iLsL84IB8hIutY5RMJISyp1DjC2p9DppY12KvqkDCchU7F8JgXcGURvEANRnv8TIAb1AHTti4+uwgExks70hTdAfASZPFuU0arYIUQUeXonwUhnikkx7H/Cctjrdlo/DUF5+zCkVDH4ADbtsEE27TKhAyrVc9G1sSQv0jO5FxE4Dol2HemAblK2vMwEhOC7Ix+ZOCPEfFJsn4RseUmgPOJN1v1vn24Aum3VaKuqqrL169bbokWL7J133rFtW3dYU2NTmF5CVYfIaAAK9a5HY1Oj7dy50+rqalNlfx+0SAHl5ZVWU1uXMg4MMTUa1WVS3dDIjhLv1ep/3Yb1tmDxIlv21pu2edt2q9utpaqT3LlIg/fpXOmZ+UD0DvtSMBDrBTzZ8SUhlu+rnu+TpN4dmj/Bupwtc/ZJevfu3WGHz4WbInbNmjU285773Thil4XF3eziiy+2c889ywqLCuVbIikwKpeuetDQwrsUunHjR/aT635kF1xwoZ1z1lntfWXSCX54SPIRFYTQY/8V5VX2i1/8wo448gi76KKLvC6GXFpaagUF8nKOy6s6sJO5du1ae+jBh23Zm286ToyiW7du9oUvfMG++MWzrUeP7m4mbW0tXhb7ggbnJRVMx82xCMl6ESLNyLeoqKi9LNYFknkk+EOHyc3NJM5sEGTV3L6Bmln/gHuSSGx4lxD1XllRIQOZacuWvmWTJx9v3/zm/7YZMy63osISu+++e2327Nd9RxWjIIU5XoTqXaLV078krGbbsWOnVddU75PxvQHCJzU0Nti27dusvr4+bDqlZU/XniLwWqN+7733XluydKmddtqp9q1vftMunX6pFRcV2wMPPGBvvDFPNErg3rbj6Oc9KD0MHSAtpyCz+A3wThtQtO8NpehO1o9tMvuKbboCAU/qIwvkNjY2WkgNbrEA/cWRiFWST+I9ppjHFnCsR4rvMNPcQnmbbd263d5+e4WdeNKJ9q1vfcumTTvDR94Prv1njd4iW7h4idXUN1ltQ4PtKK+2qroW21FRa5vVrrK6RoYjzyJ7zuPsxs9v8oxjydqaequuqtWUpT6bWq2xodkqqqptl9rs1kCub2ixncJX39BmuyrqhG+rvittd6MCZ8URzdCo1NjcarX14j+nzeqbm2zbrnKr1jeHkHgPjBMj3rRps/h4xyZOnGSXXDLDTjt9mp19ztl21VVXia5cTaMLNBXWeRuhtF1VdbZp2y7btH2XlVfXW70MiL40aK2iosoqaxs8f+P2CttaXmdbyiusWtNvg7dvNc1gtrOy1mr0Uif+GlpyvM1m4SPxrurWINp2NzbbVnnByt27XQY7hAtduB7EU1JnmYl6GEq2MlJ+0uKwwGhV0Yr15mWZEC031gWST5JvnWvk1NTUWqsYxy0zYgvymVjy7NAxh9qFF15o+YUFKm+xhUuX2auvvWGHH36kLV++zNasXKX3w6SQ6XbI6NFa2YAvJAzjyWeetS1bttgVV1xh3bt3l2dotmee+avt2rXLps+YYSs0tT333HM2edLxtlSjf+26tTag/wA770vn2oQJE5xWhIAMoIvp54+PzXKc559/vo096vB2nhADBkB9XD/nHCTc+aGHHWqXXjpdOEzfmmL0b93adTbrib/Ye++953UOO+wwDYxzbMSwYVavGOjhhx+2/OISTQs19u6qlS6L6uoq+9rXvmKDBw2wfBns1q077c4773RazzjjDPv44/dt1qzHbd26Dd73EUcdZWef9VkbMXyE7ZBHvP2uuyWvQ+098VlRUW4/uvb7mnLKnHhoCF4sDUnvgd7jKXYm5CIcEkiiwSCXoOhcz6NsXwkcUdh8u5HoSd7gwYOtZ6+e9vzzz4vpu+zlV16x9za85wI/55xz7POKLzCgzZu32csvzbZHHn7EBg0aZJ/+9DRbv/49++Uv/03xyCanDQBns9oSH7z11lvuCfPy6C/X3n//fVuxYoVwt3hQ+pqM7q677pGwetuE8ccpJlpht99+h1VJOc0a1RpoornQPdKDDz5oL7/8kh0l4Y8ZM8byIk8F4ik3z4YOHep0vfDCCzZz5kx7RXxsWL/BR+m5XzhXRvBF8dHdPt64WbHOv9mSJW/Z+PGT5Hmm2Jw5C+zWW39j2+RZGuXJli5dbnffPdNefPFFGz58uA0ZOkieaKnavOkyBAjwly5b6lcwtm/fbjfddIstXLjUJh03xSZNEs7X59htt/7aB8Xupt02f858u+N3d9pbby+3YUOGe4zFaT76ANBnMpEPfwBGEutGm4gpN3iOYFLxPfXZJYhtgUxcIOLZv39/u/rqqyWw8TZ37hz77W9/a1dfc7V975+/Z08//bQUVuWxCEorkMIuvPACu+yyy+QhvmJflpfYvn2HLVm2TIpnJDAixJimHZaiTD3uXTStoXAOtVtSV2Rwo8XFxfIcX3Jv841/vMIumX6BH6OXa6RF4bFiukdKf/6F5+0sGeznPvc5KVtBnPMS+OA5YOAA+853vmPHHHOMvfH6G1LQbXbNd6+x73//+/Jgz8hjBsObPXu2bdbU9JUrvqbA/FI777zz7UvnXaDgfZ2MdKVwaapTvW7dSu2HP/yhpqsr7eSTT1bQW2bz5i2QR6l2XG+8Pleeb5CNHDlKOF+TJ/nYvvrVr9oFks+5555r553/JVsjr7J8xUqXX0tOvo0+5FC78ac32kUXXOC8R0jqKULUVzJly+8Q3bS71v2EiCy+p59YKkpss6OPPtKuvfZf7LbbbnGhnDL1JCtXBH7nnb+33//n7VYjQ3HvZc02cfyxVipXnC/qjjzsYGnbbNPGjTIC7pRoTlcd+QBflja1aQnNYQs2k5OKhfTZrLoogpEwZcoEK+tZbEUl3WzwsMFqmas5vFF2lqdnkz397LP21+dfEAJzL1Ja2p1X9UUWAaS+lBo0xR12xOF2w89+Zrf+5la7+ntX2afPPM1q6qrt9t/fYb+Th9q+s9zWrF9vtbsb7O1VK+yRxx61Rx99VNPPWuHJk3FWib5WyyvItWMnHKv+jrDePUpssFaGJ0yZ5F5w545K27q9ylatWmMnnXSSlF3o+XW1zbZy5Tr705/+JJwP26qVMjjRuH3bTnkns2JN21NP/JSNHD1SvKZXQ0BnunWZJ8qi/pLQwUgOFCQ7whXjNp986kl3bSNGjHDG/1ErA5afBx00yhYrcGXpyfSD9ZNQNpoiaARfuOMRlpSBqdAHHgTTAmhfITzNahMgzMFpIUjlqs/ylMs+sl8P2HNkZKedNtVxz371Vb94xPQNDQG3lq4KDnH9Tz31lGM6aORIBeIn+ci+8cYb7ZBDDrEFCxe6l6qpVjDdJCNUUN/cIu0JWVmvUvVxmqaswd430F1TLKTh/dgCOPnkE8Vjmy1YtNDmz5/ndB9//GSnr7a2Wi1Y2YQgk9Snbx87XausESOHqS6etNl6lHbTk+X3gYP/FiOJ1umKlmI2bdpkjz36mC1YsMCnAJTNfMk6nngFQ4oA81u2bNZUoKlEgdS7K9515RMPRLzBcWhOlZfANe9WRI8qq/T+wQfvy/VKueqD6RbhkcCrPy5wT5qTwdujRw875+yzFTD+LzvxU59SDPOaLVfAq27UPhpXgA8++EAj+DHFDUsCH6pELNWnTx8bOWK414EvBkL37j3szGnT7MszLtMyebqdfuqp1qN7ifXqTSAJblPwCY3wxMl2m40aOdRGjRplr776mtJsm3jcsYqB+vsVx2HDhlhxSaEb8/TpFytQvsROO+UU667B07dXb638FDu1xxmweuAM5YAaCQpMAkomeD366KOd+LvuustH4rvvvuve5fHHH7dlijVw8XgKmnM387HHMKiFHuj+5c9/tm7du8njHCTmc105GB9B6nAphrn7j3/8ozzAax7wEuBxvuNJRtHcrJHsXgeDJVANS/VWPIm4LyzMk0JLrHfvnnbhRRcpJiqw399xhwLgj+BACQibX+MUi+RpZXbHHf+pWOoZGfAKWyTvQcCLFxk7dqz17dvXTjjhBOfn4YcftGWLF9n8eXNs5t132vwF81JxQtjvCEtP0SXGkV3v3r1kqJNlpFqJaXo6ZeopWklpmpSXOUUGwapq1p9myaMtlnzm2Z133WELF81Xfr4bBV6rhSTcfgGrozo+MeT9+Mc/vj717gDhpBjUdQVgmNGMAJKGwhvq6a3ofLiWaevXrPGR+qoCuwXz5ltlebmdOvVku/Tii23o4EG2/O23bNnSJdZPgn799dcVxM2TpxmqQFbL0bFH+yoGoyIAZvVRKuVu3brZFi2Yb0uXLPXLxAePPsh69inTsvc4LWl3aXW03je+emm05cuwtm/dYatXrrCTTjzJepWW2ZtvvmnDhw23sUcfZb169tK00mxr16y1EvFy2JiD/d4rHgivwXISY92gZS3B6ezZr2qF87L42GXHTTzOLr9supav/axnWal46G0vahVE+ZtvLnPjovyoIw/3Ke6dd5bb4CGDbcKxx1hRQaHLME9WWyaa5s2fr4C1n11++aUytiKN5DZfFneT4T3/4l8V0L6uVc4C665Y5vLLZtjhRxxmu+trJYdFNv7YcXbYIaOtUTFRpj46A/r2/jvReYc7rgCjDCOJ29ldAdowF7Mtz2hPtnM3r2+21st3lNvWLVtt565yK+1R6stJlnfduhfKyBrtvzQi/yzP8a83/qsvOdkEGjJkiFx0b48lwMtyD2UVFxeJMfNVSrnwAeQz2ribyiXguppa39uArgItY4FGBarlMk76LZQBQHeJguQSCRx823ds9z0dYoS+WrbTZ+THfZHme1ZDH3200XHTT/8B/f2JzNyoNDwaGhq0bP/Yd4iZkgYOHKhpiW1yRr1kUV7hQXXP0h6SWVo5yHLHrgq/lDWgbz+/AM70WqigFNq3bNtmmzdvdlpGKUDt168fMbvataivHcJX6nSwLR9/vbAvPbpnFfPsvQCZ9duNBGVSeCCNxA1EwDdMoQUUgXtp8pUHa3IpgSLl/eG++2zWrFm+4mHZzAKXMxTQtKg+FcEP0IUmHj+QC4Ga8MjFOh/64ucYeAX6dkGFGsEVK48EJnB7faVm4eFuaE95FPDTf+QFaBQ+FEvMw3QWTmiZ+sSHKx8spPAXsnxzTR8oIX0z3nzvhWuT5IMzCeRxYk5bDANO2ZlO0xKOL/giFvEcfUd5x4vQ2QZtElxWKkPfUecxLwntMUlmQWeI9wfAQfKOU52jY7EjIXOxmTwqhmkOZWL9CD+oTqBX6tCGFUaIMYKl0QaFRXBT1NzcqtQi/MzTXC8MJiolcQHSFaWEiaEM9shpm6KDvlsk5Cjw+ARQpn+H/3n9yF+oh7FizExPimM0AMIupwxJ7gCDx2mQ4J82eEue7XJyQkABDfwGB6PG0GSUqYShQzuQpi5Ja5A7qCK+fUFmPXBFfO2/uwkIAzHZfjgF8Ek7Gsf5C2LxJKwyepYlToFpSl3+tRMPDlY9ypcyCgrTowwgCOWwLY4AP7YnANM//90NSFMk4Sk0FP0z0umM8YxJ38QS4KChU5aoCz4MIuJgkw6PiKESGKPIdgCPaE72lflkigAndVi1MNqTwLSRBOo7jSleMXrQu4fSP/xflI3T57Lwr/A3PAT0KVx6g1/056fyWj1Gz5sNAi94szDgkh4t8kWdHClX8g69gZBClN4+ahIQ6wHhNQjE9yck3LJSzYGaQkJ5qOts8Qoqf0UxgTCicvpEEL5jKgOl3EeLGA0ResBD+2ACAbdPMxqt5MYqACTzjQLog6K0kejJq8B5U+JBf25MOfmpuTwcseONQp2UcQhfUnhAe5kAdbbTSPL8UEZJWl2xvtqm+Idvp1P4gmGE6dDLYl8RVQJCbymMqgcfTdKfG0lZ4CMTArq053L5I4NUbER5ik1/z9GKIfbjDTAQEvNTZ1YIchCHNX64v4AnwUigNnYeE2jolA55NjcFyy0slOXG+vqHsjAWGKMNsopCj8IiAT5S/S3gjQAucIYfVgW8tAFPGMnhmyYBdyjjm1+8csjG/k3oK5QD/A1vHSHy6jLRN7Q4CbxkQKY0A4UR0n05rbwncHt+B5zplgEiH/yYLRhJH8VWSR1GPBEibnQR9LFnHMp3h98CA9FIkpdcMgGEeA7KESj1N27cqE6KnaioUO5ZFJcUW/fuYWcxgmYOb5NfwOZPmHIA6pD4lr34TTSMhpUGT/5hQODHezWJjnAimx4tQWnmqwuCPujwE1utDkL4GhgHopFFYBu/XMtZftTEaiJVTRCED2FMh9AOzhjoAfDNb5TZacWDUQ7vEQW16D/QF55tAaXj425LtxLkFJWNUVGvVbyAU9OBglfwJnEmgXzagm+HVmBl3XtoZcX+UzCUyDflbCfwzR6MT28iJFuIAXTZSBBodMu7dlXaz372M63hu9t3v/tdq6ndZVf/n3+xqupaZxTl5sp1l/XsYePGjbWLL77QTzrzUiPT71vIUAoKGa2hD/e0lPLUy26t8//2t7+5UE4/7XRXMhV2C/fy5ctt8eLFWvJtt4MPPtgmT55io0ePFpM+/uzjTVt8x3LFqlUugDFjDrHTTz/dhg0Z5KuBJF9JpXGnhANHYpKweVWg9qEOSnxH/c6ZM9eXmqNGj7Izpk2zvlqCsr3OdYiXXw57IiiVfZwzzzzTBgwY4FNw7BHenEe9x7w35syxlStWupxKy0p9QEBTQ0OTbzyyU42HGzv2GPvUp07w6RDYwzOlcHO/5MWXXrL3P/rYLrnw/LDMlgZbZaY1NfXCt8TeEp3FJXk2YcJE6Wi85Fxohfmh30zYYzONUUpKWpVbvb9BRI4IrrUnn3zal3innX6q1dfVaun6hA0cONSmnnKyHX744TKKYVZTXedb2JXlVTZh4sR2RYMv9JHwAEp0R9BVV1dvq1ausnvuucfpmDRpkvcLFWyZc+bDgRd7EPPnz7eVK1f4ySzKLdfSjx3Rv/3teb+7+uGHHzgNa9auteNkTN26l2DtooF5OHgAvBJB84b33vflN0Y8EXoZteq3vn63PfXkU/a7392uAbLTjWTRwkW+XzH+2PGiscDuv/9+e/SxR23r1m22bds273PdunV2/PFTZETqM8Wjy1Iv7MXg7agPn9w7wZDZU6FPdibmyHhuvfVWlW3wvtilZgAfdVTYwfZQKwEMiHoZ6JZtW+2++x6w1WvW2rRPT/P+8YS10tMjjzxi9937sO/1rFL5q6+9bgP6D7ShQ4dZUaGMGSVkQPtVgX2loF2YDIzmQ6RPFSpXaWFRiY0fP9GmT59hV3z5CvuHf/i6XfejH/jB19z5CzVHVrthsDNbW1vbjjeZYJLzEa4C3nzLzbZhwwZXIK4RZeLqOSjESK+88ir7zW9+a1df/V212ehGWi2j5ELOwoVLbOrUU+0XN/3C/v3f/8NOPfV0Gd1qW/7224pViFcYCPQZlPHeex/YzJn32vXXX+/KAsI8jSG12S5NQY8/PsuGDRtmN9xwg9188832+c9/3rfOMRiO8DlCOPyww92Af/WrX/nRP0ayevWaVF+aBsQLSgZ3bW2NPfTQQ344OF/yqamp8wGCjFiWc7zAdj9nS9dff4Nw/toN99lnn7O3317u+kjKjbSzvNzuf/AB9/LzFy5wTyR0jpd+N2z4QIP7GeEZbzfd9HP75S9/6QNr5h/u9+kJXNAW8caU6bGyQrCuMD/SiE+uFMKQf+sfRKLI4uISzdW5mooKtZTt6aeesiVrkHHUS9nPPvusjxxOfSMR4CPxjnC4Gda7V2/HT2JEAxjYGgn9yCOPdIFxOMiJMl6EKQgj+vDDD32qPPvss22gyofJo02deopoKpIxfeh0timK55oAfSI8RhW7sJy7FJeEUQ/PxEvUx2sx/V1yySU2ZMhQFyw36riNxjs7r8QM48aNs4MOGmkjR47022TwwzQB8M5uK3iDp2gVn1v9vUSxC3wCGEhjY4t7jo0fb7TPfvazPqXCK3ddGGB4KQwgE+obdrvB5kpenB0B4A8bjmZvLlsuTeXZ+eefZ4OH9LWRBw21z3zmTKusKrd169eLxvRKKgldMhKAisz44fe1fLG/EBgOp6VydbvrFNBK4BXVcrlyZ6vW2JLFy2z4iKGKT7qbpjwPcDkvaWisB62DULoywMUhGRd7rrnmGt9ydjflwMoLFx1ObhGCCx6F5+RJqFulkBobdfAY+8rXvm5Dho3w+KmxocVvweEx+vQZ5M8gBhmLXvK1wjrm2GPtqn/6J7v22mutf7+BKgs37ACU9/HGTd73zp0aqfc/4DfbFi5cLGMdawMHDJZx9ZeXGWmvvzbHXnnlNaVX7ZlnnvNBw7VFAN6QP3m8c4TAfd8f/OAHfu4TBwJBJjflOHOCd9ozugmI+/Xr6+05VScvAnhJgwYMtKu+faVdJz4mjh8voyyASy2tQ6D/oQyoTAOXY4TQLkdGPVz95NtmxXHsK6LTTOiykSTBVxpSEP/8Ww9+P/Pq7Nfs17/6D7mym+Qif+qJIPYzn/mMlZb29PMWbpz9/Oc/91ELQGjyiRfgHIS52VcyKeumuFu3Yh+lq1ev9p9ooLR33l3hQWy94hh+j3PEkWN8bi8qztNUUG5//etz9sSf/2JDhwyxiRPGSQFxNZUWBgbBzyjoMyoR4BHjBs6MuG/Kqe9afh4yc6ZPKxs//si9CYHuuvXr7LbbbvM4goATgy9RIA/QZ+g38IoxwCepyE+GVZ6SJwbJLX68HCfD0AQUSjZsNOK5KMsEeKN+T9GD5wTC/g/b+4pV5KFLS8tSsVa4WtC/bz8NesUrGmBpjXaET2QkMOm/0FcnGAtAfNKnT28bqnl75Mjhfvx/gdzaDTf8xC/xciSvJi7QwYM0Bbm7D8qPySFFJeRi1S4g8pRQIj9hQNo//elP7UfX/cgVBfBfJ8K7gJdRRvxxyy23SJl/0Ig/wq7RKmzIMLwERudNOijOjV4pTqGRL77ZcwDv+ed/yX7yk+vtJ4pduO1P/MKFqVWrVvrBJHdBLpsxwwcCUyCXr4mr6C+51Q84z6nIM8gBbsOTesgW3kMTvGyQAwrm0jc27ivORKKuJw3iCGHXN8iS6bpRRt++naC+8tVHgXgr61HqfWaDLgeuyeSCFFWMcoA8GBo37hibcelFflvrK1+9zC66+HxfAhdrVEMoUwpP/iWVEXCm3vmnp/44fhjiCbNq4kvPH153neKBS23K8ZPsy5fP8CXyoIGD/I5oXW2Ie2688WYf/d/4xtftO1deqXl9lHAGegOuELzG99AnQaMCVo1SlEgefLHEZYo78cST/J4rJ7pTp051D0Q8w/KVmIYfeH3xvPPsPCXu1BJfcLWhtlZTq+vN/whv6BseI4TpQ7zriUdgwGGYO3bu8B1UyvEGVTJYTsY5bXZ5ZSTH4U8AJsSv+mIZzgAl5sNQAp9h+x56hgwZ7AbarodE6mAkjlYVQ4zRETqUy2sgPN+X0DcC5VlUXKAlZrFGfKF1UzDmB1rClWrq9XbXN3iAGb4ZIbyhjPDNmPCnUn5+kfpSsKdgCxxE6dxUZ6phCptx6eU29phx9tHGjzR3H+qehLL/euB+rTSOsOuuu9amnfFp69e/t0YtxoHQwtlGrZa1Gtthq5sA1XsWQJBoDjM+RwdFiqlG+NfmrVu8PvX4DQ8H03ly6+VVNX5qW6T+c1GecPSU2yc43qppQyao91wfySRkSTfgoW6O/xdwRIMbSiBhyNChnrda/CCVvIJ8xRQbraG5yQ4+dIy+CzQVNmrqAZ83C0cRetKe5PtSOWEAwMchh4y2OsmeJXJxQZEMJUcB/0rJOMdvvrkjUZNoDzHlukWlUnPKYom8O36nE6OOIIjNJRjmphenkpzOcreUNox4RhFBoi8j9STVy0Ce+PMTPm+zYxv6YJkW+gujOzBFin35jSspljps/z/00IO+h7Bq9Qq77w8zbfu2bXamjAZDJb+yosp69+mjVcBSv8X++BN/sWeefsZWr1ovoTbZSy/Mtt/8+ncKALeoD5eKGzNehYPERvXJVQDu1zIY2KfhnOnBBx+yF7TU5TLRg6IhvyDHJowfp9jjKFTkS9aXXnzBFi1a6L+rQXeseMDxrmInlrHsdThP4of+4Ik+/TRaWgp8N9show92j/H4rFn20ssv29y58+zeP9yrWK6fjda05gPmpZfstl//ygPSJryiZB14aPaE52lFh6mpbvKU46ykqNDuvvtum/PGQnvuuZfs6aeetbFHH2Olio0CTSlvmkh53/72t6+PFk5ilPOM+xMEbiGFcvLZXVy8eJGVdOtuU6ZMknXWiYm5dtCog+zQMWOcYdqCi3a4N9qyN8CNLgLPyZMmW4FWFtSJdbmxxVIz9FEjgS6Wax/kXgKczS0NVqjYgz0Pbmdxy61C7vLss89SUDpeq6ta/03Pzp3b7aOPPvTdT3ZJ+W3OypWrNGWU+gphsZaQxAvHalXDza960YYRQt+iRUts0KABdqhWFa0teaKn3m+89es/wN5mx3XuG847y1mmFzYOWalwp/Wtt9/Sqmehy2KzViBnnDHNg2gUtHr1Kpv9ymy/aIVr58gg8F3r9KmKTZk8GSdmu7WCw7AGadm7QvHO3DlzbcH8+TIisxkzLlPMN0IemZ3ThbZMPHqArOB3N9OIjIIA/p3l70iOrXbCp463fHmK+pp669aju28tzJ0zT+kN9bvcRo44yKZPv8TKSntIT9KvDBadRb2jtxxFyhh8O8TRHJdkEWA0AptQzMU5uQXWq0+ZiGmwjR997FYetozFjZLGRXs7RjnxBb/jpXNWE4xO6nlZoh6ABe/cWSkFFfr2Pl5KenHYsbPCNm/Z5oodPGSQ5u++VlRY4AxWVFUKfxip4PKzIbXBU5RKEAgTl8v1vjLRigHAL3Xxghs1KntqVDGy8vWP5SOjk3hl565K9bvF6xIDlWi1BV7OcBqkcDwYex8oH2Po07eXxzLwjeetq6pWm24yTNrxn90I/PBbabxx77JSDyQ9vy3Xf+pZoVjnQxl8vugczO02rQrDqo8b9LVuLKxmyMOwaMogY0ugpLjU+vTrqclassvJt+YceZTmXP8d09ZN2/xmPb9o9Bv28kKcpQVg2ksRJ8iRwtq1j6I6M5JMYPMI2UEYgU9lZfg1PsEceKKyM4GtfAzA+9CKh/YRkoYIgDcaEQoMSg+/41Gpnl4tkRdwkMDvrlJlgZSwUop0UR6/aUo2S082+ViWEm9lQrgBF4ENscBHPD3l20tSrCevJQJh+g005eEyBKI2RTsyC33CNW+sSLhWAe/BCIK8IwRe0zLiH/8TSR6Q8vuhuN8TgTackPslMJmP10+FF8SU8BNlFGEPSTiSFPN7hzQi5nUYCcyqJKOTCKni0FQpMhzbZULMDooM9MS6POgm9pXZJ/XSPAQh+luiXqhDaRoQGPmpbjIApceU3E/p2Hdn4PWE1/HrO/xNA+Uk/w/wUZfqki3199ZHbOc49Qe+8bI8aZsJET/9O9qYUhDxxdTBSDIL9wYoODkycevxPRthAMUMFq+XqpIUAM9kin0AoEzmhdTREwHpOsHrQFeyTaStPY+uQ/fe1m+7ta+6OkLIT6fIRMQZRjtyAHdHLwJ4G7l83Ll3pT+R3uhF9gDRw9VHqd7rJSG0DftNQY6J/BTfvCeB75jwZrGU9tm8CNAJZfsPcX0NZOvIIRSHcv0v1u8MKI+JJklvElP8BiLzJLLCSEp7LCCWt4PjjQkFBlzZgXaZqesQ6QppT/qzAWXINklyhCSOyFOsF71oNtzkOS18pOqnzWVP+LuMJCls3vnMRlQ7eHXKUV6cvzsnLuAM5WGkxRETR18s2xNHbJutDOiYD02R7tCGfmKKQJNkArLx21mfQKQppmReNuhKWSadyDekPaFjvfjOnJu9PrDHjmucx/Ynpa3WH+152XDF8v+pCcElR+GBSFEW2eTR9dQ5PRF4j/1E2Fvd+MRD763NAZtugM4sPhvsT93/n7C/dMb6CDcCeTFFSJYfSEj3kTaKffUVizuj74AYSUSe6GOvAAFdZeD/FaQFFJ7QlRTagYK0rA487mxwIPrZw0hYFewv3khIV/VNffqJ753BJ2UQBWdbCewLqBNTV2BvdbPlJw1vfwYHTTL56QxiH8RwndEWIdJAvaiPbJBTW1vbgVrmJ3YrwybUvjuBeLbMq6qq/eZ8ZIam0ECdNDH+0PzHXgy/7Yk30vdCoCrQPs6Z4A+GHJazSfwR0m3Cf+YC/DEvG5BPOX2wCQUf3L/tpHo7ICvOplhmxz4iRJwRsvWdLAey1SGPfrItqbNB5IOzMY4LOD4I+eBKPwHqBf2FPZX0xht9punLKS8vb6csZtIoc6cuG0RBRCNhx5VOyctkOJkXn7G/vUGsAxO8J/Fn4otAOfVhNo4o2oW8jgB6jBbDQ+FpI2HneM/6HSHQEQwROpLBX8Ad37PxnHzvDKCZtgzaTMjkO9ZDf/yH9fhNc7Z2AWgbDJs+GFBRVpm07nF2QwekcHtp70yAjDrstsbt7L15IOqTAlEdt/6TxEWIeKJ3QxnRSPYFtOEQjT5oE2ntDCiDj/j/XdeVQQIPyIpteSCT/ghpPsJuNtC58tJAO+rTbm/1k/3CK2c3SX0AkYYkLUDsA14yeaasra3N/i/mPJvJiMX5jQAAAABJRU5ErkJggg==;" vertex="1" parent="1">
          <mxGeometry x="-303.79" y="-79" width="162.85" height="63" as="geometry" />
        </mxCell>
        <mxCell id="SOp-MsYclCzhipOw51BH-35" value="" style="shape=image;verticalLabelPosition=bottom;labelBackgroundColor=default;verticalAlign=top;aspect=fixed;imageAspect=0;image=data:image/png,iVBORw0KGgoAAAANSUhEUgAAAIgAAAAvCAYAAAA4o4IEAAAAAXNSR0IArs4c6QAAAARnQU1BAACxjwv8YQUAAAAJcEhZcwAADsMAAA7DAcdvqGQAABxlSURBVHhezZwHmFTFssd7l5wlGcCsYALMCQMoBsxes5h9PrOYxez9PiOYcwAMBAOC+pmzAiqYBRVQMYMiGSTDsu/8quY/03uYmZ31wf1uQXPO6a6u1NXV1X3OULZgwYLKZcuWhdq1a4datWqFUgD8OXPmhGbNmlmfsrKyTEt+AJ9St26dUF5ePY/KyspQUVHBXUK/ttUV4wE+9OlTp071PESpsqLS9GjarGkor1WeqU0gZlWZuSY3y5YuC8uXV4TyxFbl5eVW4F1ItuXLl1sBsG8pgB7wqFOnbrV2BWSrfzIe9erVqxa3XO0lyPIfBwYgVgBj6CrDqw48L1abvarwrDr+4ATLy5IBpCR/vNbrqwDPSTEuiQ+VlTAAVcF65gXJLsjpZ5dVDqXoUY5Q/6QA+epXRtHMq6igVKzQRh0ldhLpmtxmrjkZhR/f05dnFYF4x20U1SUUM8VpFyqSDR3ytaV5xM/ptlIKEF9XVoni6qoDze6EX0mgSICAsZfH91IA8PqyrGEBtas4/0ThTFTSfRpiGmmgOld8IGOZYojr0zg8qwjSz4VkSEPcZ1VAEkH8RkqXKlhNAT1K1QWlFy9eEqZMmRIWLJifqXX5mP1Tp04Nv//+e5g3b140oO4ElFgH1vMZM2aEmTNnWt/Zs2eHadOmWT+Kg+vNugztWbNmRW0OcizaWO/Bzzc41Mf88zkhEOMA8EM+oLy8rGC/YpBPnv8v2BLzT+Cf9isEMqwPXEUYO3ZM6NHj2PDiiy9l6nzAxo4dG0466aRw3HHHhdGjR2edYvlydx7JpfoZM2aGSy65JNx11102uA8//HA488wzzREqKpZlcH0wpk+fHk455ZRwyy23hPnz52d5Ig90cazzzz8/3HvvvYnjLsi0CccdVc8Az0uXLs22xUXtukdWOUWsS76ysqAUmiZRGiHumK8kGFXwMEChkmvn6vfqpyJaAO3LllWERYsWJxHkr/D3339nZlalOcdll10Wvv/++3DyySeHHXfc0foIMDD9MTYDQ0QA/vrrL4siCbfQqlWrsNFGG2Wyfd+JAPBYssSjlqINAL1k+Oyencjaa6+d0Ghp/eJBlU1Ujz5c6cMV4BoXADzJTJEddF9qyWfXQkWyltKnXEgYE6MWKsuWucG5V+LlfRlQ3zYVKsxADM6M5TlNmyJc8DAyhS0rdqT+66+/MeeYOHFiuOKKK8JRRx0VGjRoYH0XLVpkjsTgTp482ZYRZIMWfdnO4RB1atcJBx54YDjrrLNCo0aNzEgAOOgjqJXZ8qoOHXEe+J1xxhnhsMMOM/lYauAJ76lTp4Wff/7ZogzLInKxBCILV+wHDSLP9OnTwty5czP9fElbvHhRWLhwoeHMmTsn6Ufd4ox9lpiMFNmLAq7q0JdrGidf0UQVTdkpXcCV+2c9GpA3Vy2Oyn0aVsRNF59VuWvV4jTsYs8InBvgivDDDz+Ea6+9Nvz448TQq9dl4eijj7YBZgAx4rvvvhOuu+46Wx569jwv3H777eGrr74yJWUIAEd68803w8CBA7NLCG3w0awST5fLDYlBeZ6fDPzAgQPCG2+8YbQ++uijcNVVV4Unn3zS5Dv22GPD2WefHYYPH2F0fvnlF2tnKcTXoEHd1VdfE7744ovw66+/mtwsf3Pn/p04XVn4+OOPQ6/LeoW33nrbeMf24V7PMag+X1saYhT45esS00kmgg88s4ZwWKgwA8HVFSIwSMitgBeXHG5x+hxueR+PHurDrLzyyisTw41OBqCHlSZNmmTp/fnnn8ngXBfGjRsXDjnkkNC58y7h5ZdfDjfddJPNUuhA06+1kkg0Nrz//vs2+xQhxB8AB1wgCioGS5csDaNGjbalDsdkKXrrrbfCAw88YIdUnTt3Dp9++mm48cYbLTLA44MPPjA85AWIGiNGjLB8Z5111gktW7YMTz31VJJrvZhMhInh+uuvN507depkEQvZODTjwBDZZC9K3bp17SqZ4ZHGSRfogOv28Gf6xP3i++xBGQOtjmnAkHEIFsRruEA0CtEpBNDxfj7wPBOOn3jiiWRQv7b6MWO+MsPKEAARoHv3fcM111wTDj/88HDkkUeGrbbaKnz77bfZRHJJMrDizYXZHcsNLbV7NHFweZSHOHC/dOky6wMuyyCR68ILLzRHPv30022ZYdlwG/jyzS0TSlEL58HRTzvttLDxxhtb1MOxlAhTB8iW+Uo+QI98uPkKkH6Ogbqqo1sNpIkgTLFBL8S4FDDhkkFkZhKmWfvHjv3aHIbIIN7Mwn/967AwYcKEcN9994XbbrstvPfee1m+ouPF63zAc9tU6QAOdVRzn64H5CyO59Fzyy07WfLbqFHDsP7661s7+QS4kACPCMU9+Qx9nHalJb29evUyZ3733XfDQQcdFHbddVfjWSpItlUB2W0u11VdasIH4xJCTzzxBNvSnnjiiaFjxw7mIK+++qqFeAzD0sKsJUwDHTt2tN0NsxsaPki+bSS3AHzwc44BHSXSfh9vM90pmPVcRVf9KEQChzJLiJFbtJTEk/BBb+HCRdbfo5bTpkgW+nKvulIKkK9+ZZTsQVkxkCFUViUglAYA47Zq1dp4rrvuOkkIv8oiyq233mqOgdFJOtnCssO56KKLwv77759Zuz3/gR4zVuA6+LLig6gXZM6XPgwSEQDAEdmBsJTQTj9ocPUkjyhSx2ggL/ygazuAhBbLGzsZnqHFcsnyQhuFHOruu+8OLVq0CNttt10YNmxY+OSTT4zOfwP844OyVQkYkwFirZchyUE6dOhguxQMzmHWb7/9ZgNXv379MGnSJDP+kCFDbHdBf7agDCAD5gPoB1ec0nKljVkPOI8yw8P5iEgsWQ899FB45JG+YdCgQcYXGhRwkY/dEDsanANg8Ck4ZdOmTc2hn376aZNr6NChYcCAAbbtRaZZs2Ya/W+++SZcfPHFloMQgfr06WM7t/8GqFEO8p8ADK8wvdZaa5kDKFwTGQ444IBw6KGHmkOwfdxnn33CFltsEe655x5LEkeNGmVJIzOSU1P6tm7dKqy22moWVZo3Xy2sueaa2UggBwSoW2ONNWwHgkP069fPrn379k2c5BE790Amdh70xTFbt25tV+0IeF533XVDw4YN7Z4kFAciN3rmmWdC165drZ1PH779dlz48MMPTaf99tsvbL755uHSSy+1c5SXX37J+pUCq3KSlyXbLvsehIGQoaoD8EkUmSFx+C4E4DNQDDqGLQaanWwNKSR/8EE26DCIOmSivnHjxjagHJAhC4PCrP3jjz+MHkkjSxD6gc/sxfCrr7668YIOg4lTMvOhBR8iDO06jIMvjkEU4QymefPmJgeFe5wEgD510EdmIgz8qcdJweUeGdGTNnIY6YgMLDvIhO7V2QvIjQfbf19ai4EiainjUZYQrrGDwACBmvGhTeb8oBhAn8IglOogrPda8wXpNu5VaEOunMOSU+R2KlyQNaZLH/tgKDM44EKDQjt4vnQ4D/WRHALRVtuKsjlP6MjGcX+AfmojV4EXuqR5pUH85s6dkzha9RNW+KU6SGkekQLRTHgZQ5Vi4IaqPhTm8PiazI0uoE1FxvSr43CP8l7nQkIjDeIBLs6gOoHOK1QnnuoXA89UgS+aXuc6OECH4s/gCE8Q86et5rCifDk5/jmUzZkzu5J3KxhSxmbmCTQQYobxwCfUMvPwWHRTHzeu40pgKezvOHKGyAcylHglF6Mfg9f5IMZOIaPrHpAMTiNnRDnBzFmzQovmLUx/0aFdfQGevY3nnLMA4unP7izi4bsaQ7M60aBOdhU4T4q/aMSuyIQDi77L5jSr1lVG40GfWA+nKb7UIQeFVQN6bADiSBlDWbIGQiEjsN0aISmJgNz7cbUbnvDEOsr6X6dObRMIgIYzcKFEQ0Lx7O2FQe3gxxFE9TxLWWSDp2gDelZ/ZMmQqILHAKCHL5V8y4mRrMn6xfxiGUQjNwAO1Hk0Up3rDsSOon7gU3TP1QfJJ5t4wC8G8Y/7Apzckt8gO3rpKlzQoBvbDmdKBwPJLEgiyBzLQViPYgQx5pl2rYccKEGURE+JGUBfrX/gxXT8La4LxFot2lxjXJSHBlfWYc0i2tUH/krE/DsNX7OhzT2zAqAdgFZ8L4AehSRRCSMsNJvi3Ip+nHSir+SFT06mnOPRFvPBYZBLIBsBoiV8aGJrBs9nty+zADjx+PBMmyYwEcQnbBwV8jsifeVEsi8gHWjXfVlCuIqDCNQJz1y0aGGyO/CsnKyfQnaOMNShNAkoHizFADGBPoPJNjDmIcDZEIodA31QWkKS1UMPuvCAFvU5w/kJKWGZNnYYtIk3fUVTvHkGVzsadj60qY944Hj0Z0ehsw3qwUV/aMJLdnBjE70ij8gA/Sj0gw6Rl0Gkn+yFLpy0Uudb56qTQyB85EMGdIcu2/m6detZG/Kih3DFBxvTh4Lc2Jm+8MO+gPoAKzgIjRTu6chLJN5tPProo7bt6tv3kTBo0GATAMHB5breeuvZ+QN7ejESyGNlFEBKU89p6IQJ48Opp/6PbflQHPjpp5/C66+/bq/F27Zta29Ld9hhB5MN4yEDb0tHjhxp21z67rvvvmG33XZLBrWB0YgjgQYU+O67CWHAgIH26QDnKABtHLCNGTPGXrv/+OOPpjOns7wAZGCZHMOHDze+RB/kOvjgg+3tq6KD2zAXRZTjgc/Zyp577hm23nqr7GAywOPHjzc7873LZpttZucieq8DxE6CzfgIijfA48ePM6faYIMN7HMDxgE9easMvSVLFpsNqMM5jjnmGMOBJ9vpESOG27c26LnXXnuFLbfcMmsjeNa6/PLL/80AUikhGAAAIq+88ooZjM//YMCrcg6j9tqrW9h99y5mXPb3X375pR36bL/99mY0QPTkkax/qoMns5fzijvuuD3p/5V9zEMEwLNxCl5i8TodRT777LPw9ttvm9Eo0OHlFi/yGExk5RsLHIr2du3aV3EOAL1wAAaKb0Kef/55O7jCuLQh04cffhDOO+88+2qN6ImuOCCDyix79tkh4cYbb7IBZQLRjsNwTM7Zh/Rz4N6TTjkWnyu2a7dxYrcOWYfiJPXcc8+1E2Dw3nnnHXv5yGRo0qSx4UAX+bgi/w033GAntGzTmUijRn0Uxo0bH3bddRfD5yR48OBBiZwTjBanzDjV7rvvbuOD3bHds88OtfMmeDO2OEg8fivG+xTgOBiPMUYhkjnWuqOOOtrefWDMm2++2T58YZ0eOXJENgJgQC0fchIAxhxI8aEMX3eNHPlB0meR1YOHQYkqDMKpp55qR9QcSXNQxXsLBg7D8KEOUYRTTk4pb7vtVqM/YMAAwwFkWGYQ8mA4Xs3Th2famJEUDNWvX3/LSXr37m1Rk+9Z0YcJAM2hQ4eZo3BKCy3050j/9ddfM11dB48e3NMXw1999dX2vojPFQD0hDcO+9hjj1k975iefvqp0LNnTzslJkIQfWQX9WHC4kR83jB48GCzA5OVScREwyZMsC5duppdeL/zwgsvhMcff9xeZiIn8vJdC/aHBo6LA2FnnFT8qnUQCSVAYJ6VLxDKGzduZN95srTMmuUvphAQxyECYHzoALoiJDj0weDQhB4OCP7nX3xubUcccYS90sezmcWTJ0+ybyboP2PGdAv/RC2O1vlYqEOHLWxGuWPm3tDi6MjFUgQvop54Jn/tnkH67rvv7HNGvsdAR8LuOeecY6/lmQAYkfv27dubXMjkeZeplYFc5KQQAXEUZiaTjWWW5TbBsDYGu1u3braEEuq7ddvT8h4ijr5pAZAVYPYzWVge27Rpk0SkdqF79+42gVmi4Imzt23bxl4rgMuygrxEcXKvESNG2msFPp/k9QFLKNEUJyNCQQPb2cu6YkXLAvco5NeQzODZYcbMGTZYP//8i3k7RmCwMBgzHGZ8Yofx6Ufy5tflJjhhknco5Ay8EXU8d57Fixbbvl6JlCLZ/PkLwqRJv9vgkbP06NHDliVwUGzy5D+y2XycyQPUE8rvvPNO+zJeJ4kUjMv7nXnz/jYHZVYTgpld7du3MwMyeLvssouF6+eee86WOGYcDs4Sw/sVjAr4TqLMeODkvFyEHo7py7k7Cg4H3rbbbmv1TMAWLVqGDTfc0F5GMpjoRhGQo1xwwQW2NMIPu4NLNGKjgFNNnPhDsuR+mSzfd9jHVHz1xlLGi0oiJz8bIT3QKTL2hCdvrrEjgFwlRBBP7gAGGCUItX363BouTcJvz57nm7EJc5tssokZCmMzAwnjJ5xwghkpBz5gGBNjMfMVQeQ88IAWM4VkECPyhpVQjSx//ulvaclZFDIJlwwC4ZFkTd9oyKHlKNTDE0MSoYgqDJQi2pw5c805yL2Y3f3790+WkZ7h8889ohFRoNWnT29bMvg2hZnIC7g459E9uOiHc+GgAmShjYnElQlD1MCxsRfRhjMa5KOdQh9Kp04dLYnFzvRncg4ZMsSiOFEIp4I/STZRkUhLcsxyyOeMOBD91ljDcyYcDGjZkgPD2hZ9BLlNeR5I+ppgDJgEZABRAgcgNFHP7ML7dt55Z1OUfhgTw6EEOE7Pt4h+zwzy3MDDbi4sYyg+HeTbTQad5E8v0ZCFsAoO9yjProo8hVnLG112FcyIhFrEz40LP+nBVbrxzOt37nHyJHk3PUnemIHPPTfMBo1dHInj4YcfYTbg2w2SXRyFr96QC4AeQARessQ/W/DnnDzwYnCQCQcV0Be74czClw0BBpGfheC05FvkR+yizj33HFtKcGycgbfDOC70kY+8atiwoclO80BzEqIJ9HFIcBo3bmJXcjDZp6iDJGrYvxIuwU/ul5sRWKe32WYbM7AOwLiHqHBlBCBWkHvaVMgVAD0TKpnlKMTX6SSBKEok4fU7RoAXSwKv0VnK9tijazjkkEMtomhZwsjQA+DhTsmTz0iPHi4jfZo2bZZEtWaWD+AM8OjatYvxnjRpsiWH7BRYMkjuGEBmLLun1157LRx//PEZx3RHwKGhz730Ry7qGQiAwcBJiJZcyU3Qn1mMA9ar7z/ZoJ/sRhJKgnz//ffbZCGR3mGH7ZPcaB3Tk8hMhMGG8KYPuRqJ9fff/5BMvgY2gYkw2IB7gHShfsKPnAVelKS/PsjRwPpVCFKQmZC0JlcX1pPTxrb+16/fIO8ywqxAAIBnCjRjcNq5Ez2uhGRmJlvWPfbYw2YDySBGxKDwJUSS9bPFZW2/8MKL7IMinALgykCw5PjsFH9aPRkGx/n6bGFNB3A8BgF5mKmsyazVALJhQPSlP4UJw7pOH4ClgcGGJqfI0t35I4AngBSiMIOiL+WxBfzYmpIIN2rYyGzILg99sD2OymCT77ETZPBbtvRPAzg05DiA/I7JJYdk8JGRaEykILFlueEEln5ciUQ4WRP7bCDzhTydKVUVcEAw2rhq98I9xuUZBalLuiVXD+c8YyiSIMIxOwsOr1x4/32KAHzR5yr6AIZnewYtZuwLLzxv2T5hnJlB8kuSyCcHzASiDH0ZQGYEM4h6Io7/HKKzRQn0o/A1GLSdNwdo5Wa0DTfcyM4X+LCoTZu2FpqRq0uXLrYLIGqwnDFBNt98CzuQIkHcf//9zHGnTpsaet/S2yIZS53nQu4Q6MgVp8MZcDJyk+7d97NtPbLi5NAHF5kZJCYBeQY7la233jr7mSWDzTIsneCFU3mf0ZZTsQMjIpFUE92ggbPvvffetrUlyWZ8cCYiIflb40aNszRr8x0BxoojAErARC/kCLEYEg8Eb/XVyS1q2TqGIrFj4SzMUGY7J3SEQGYU9OjrjFmf3SHhwQwkd4EvPKhH0Z122skGiBkB8CUZkQSezHKOyAnFJJXQZG3mV2hrrrmWrck4EYqzFDKD4IOTMDgAORLGI8ogH23sDh588EH7zBCAFz/z5NCK6EU7/GjHJvQj9zrmmGPtfm6S5BIN0FVRBJ25op8OoZixODIykeSzK+zfv1/S4l+q8aE2OQQ2xpYMHk6HzGzVsddLL72YyOwn4EQYlkhOSkmkTzvtf22CkZPh4BxF8OH3pptuajoRmadO/SuJ0m/Y8siEJBLxVT08Kchsb3PpgHGkTAwYDyMSVs0AyWDzjBIKuwhAmwA6hHWUbtCgYbIMNUxwKs1ouXzD8wEiEcsFNOARRyGch+SU2YJBcDZowIs2ZAGXgvFREqAd56EOB2JgmT3IBX1mNPLNnj3H6jyxJsKxYwjGDwfELsxSZjn6Qo9B16DBHz68A2Fr6kcCbF2nJPgNbKeErZAHuZ3nbHMKlmbJiqNBixnPNpsw70uB73qYNOwc0QOnwl7IgTyyF8/16tW1pUa6Yjv0YJljUmNf5RtaDuGJTPDDeZELup4mJGOUMM6+i4Eo4LPc10o8mns3LG0+IPPmzTcFVK8rbTE+AF0po2eB82KZ8jbwhM8VA0KTK8/cA/RDcRyM5QE5kRdHlLNL/qrgisMTFTE2SZ144mTSgRLLwCBosAWSM9ZfusY2wAlEWzRjcH08LwEHXPQAVEefWC7pQDsDjmOAE8uiAj36UHgGn6MG+tMHHwAkF3hA3q/aRQjjCjEHGNKZMmMQRkwlOHU8i46Ust4r0ANyYVj9fbBzNLk3zAxO8jcpzgd5wOcqPg4+6BR3FkBRsqoc7qS5Om7RD/rijWNQ53kLeZkPnHhSL3mBWG6WZEDyg+e0XT7RwNkZJA0UwD19XA+nAdCFW/oSqWLe3FPi8VEbV3c+l0N0hSswesneP4kg/uo33QjEdQKU4kCJpEhhPR8Yg6S/hCiGKwBXvAH6i4ZkKXRfHaTpYjTCK1tbdg8C0YzxBXG0i/mCG7flg1jmGMSvJkAfxgG5uScSsqRx7xOsMKT5F+Od+eHUioYACnUU/UIKp4H26nAE0IwLUEihUmkK8tGlsCzFQHtMuyp+rl9cgELOoXZd0yD6xcCXE3j51SOX9/VI5EtbabRyMlcHmXcxmacIijGiLWZSCDeur4lQcT/uVdIQ19eEPuD4VZeVGES7WLuuhXBWFkCfSEFk0JVorIgM+5rLUaKD8E9NDOtQ85BYU4B+zQe8pk5YOg/Hr0q/FBuUSl/gOnjeUh2Ifxy5SpEJPdJRsxAUX6wKgOtcs7U/LqUAWbWH0erxHSeXbK0qcFHyy4Mt0gWIdVZdPrz43pPuqnX5oFRbpgHnwLZAMfpAta/78xVf8/K3rYyiNVUOUkqR0jXpE5dS+0lvIN2Wr5RCtyqt0nWo2q9mpVQe5dV5aRroBH6aUHUlZsFzMZA81eEJYnliXVRXqKgf17hfIYj7lQriUQo4/dL1BiRLqXwcpwb0p02bVklo1qEMkI9RbBS8j+0hJ3vs0asTTN6a3mfnA7Ujk/oU27aBrlktPahDpEJyiS5ycUKpj3iEn5ZR9TG96vQQqA/8uFe/mJaAOo8gftiX5pfvmXMZjik4idXHP2lIy4re2EqHZ/lkEZRNmTKlkg6eETui8FN0s4ACufMDDF2YQamAoPCDN9ea0PS+ucOgYgoDwgdPDuKGLTyDwY+h6mP8UDwKOG+7s+eqkFvCcgdlxXWBDnpzDsKExWHSrNOygw/IDnrOB2XTp0/PRpA0oUIAQf6bxmbNcjOvWF/oxx5bHR9mkRI1Bi7frEiDePi3nvnAeYo3VxJhGTY3ID64sYx65mifAZQexcAdxE93AdEv1o8+2JYDMF7ClQLSwyOI/7q/OtngQR+tGoXxQ/g/fp79vCQUMh8AAAAASUVORK5CYII=;" vertex="1" parent="1">
          <mxGeometry x="198.00285714285735" y="272.0014285714289" width="136" height="47" as="geometry" />
        </mxCell>
        <mxCell id="SOp-MsYclCzhipOw51BH-39" value="" style="shape=image;verticalLabelPosition=bottom;labelBackgroundColor=default;verticalAlign=top;aspect=fixed;imageAspect=0;image=data:image/png,iVBORw0KGgoAAAANSUhEUgAAALAAAABdCAYAAAAFbewCAAAAAXNSR0IArs4c6QAAAARnQU1BAACxjwv8YQUAAAAJcEhZcwAADsMAAA7DAcdvqGQAADwISURBVHhe3d0HuG5FdTfwfbk0KdLFKGrELiggGiN2Y4stsSdRo1gTFT9jSWJHExNNVIwmap7EkkTUkMQGgmKLSDNYaTaUZgFEAWkKXPj2b+b+z56zz37f815a/L7/febuvWfWrFmzZs2a2TPz7rPm5JNPvqrrsW7duu7KK6/sNtlkE49zgfbiiy/utthii27t2rUlbs2aNeU6xrp1V3RX9SVsvPHG62NmIzKgncUvQAspfwpXKbgHnhdddFG31VZbdRtttFGJm8KVPb1/teQ15UqOWbLgqww8Q5Myc015V1xBD1cVecW5n+IbnhdddGEv79Zz6wcpZzV9AVphng6CRfWr3CuvXNddeGGVt9XFGLX8K8v9mjXTMrR5ySAPGWbxXHPCCScUDRCip11PrLCSvgJV4GoQrQG3SFl4oIVFlFZpKXh+o+G/bt3ifCEGPK9uonvzKaarCuurMTMP5ZJ5XqMF0W/kXa2RL7ro4lU73Iai8l7cgFcznqAa8EXd1ltXA762EF3Ms4c1Rx11VGmadb0QWjACyzwFAqrcJZdc0hvwDZaYT+XxHAPGt02vOmkVc1UxSjTjTjGmDd8p2jEiVwx4HhjvVVdWGZVZDLkWviR725ht52zjx5B++eWXFx7uh0bGczn/8PzFL37RbbnlFkW/DCR0LeQJveIr39ltJz4yzIO6xIDRTtVtrBf2sPnmmzftoaz1t+uR8mFaXzy68tAKV/b1m9/Ga44//vjCkSKERYZ6Cq0eYsui4HmoCl7dqwJaFZxvlMStowBUBZfbGdCgV3Y///mF3Q1vuHVR0Cz06i2KAzxbtm28lDSysPHG5K3Uyxum8hNnCgFr11Yjm4KsteGu6uX9eS/vDUf8rhliQKsZMLQjxiwZavQwItcRo9LKO0bKBzzHfKUtjxv0NwtrTjrppMIxPW7Ruao5cDwEKGSlAJWWIGvXLtIxFutEUYQQY3cPU5U1DzfEtQaRayuz+3SMqU6UNPRC6DVyyofwCzxHv+5nGQVe4VvnlFstq984T8oXXT1XnY82oiyV1coXTMkQ1HarNLMMPjKhjQHPcz6RF+Z1jACtPPN4Fslq5QajWBSLkqJbjPfiZUdelRQMub/85S+XlSHO0NaWj1bnu+yyy0p6PCOsptAgPJQXyJswRsoO0LTPLUKb9Fl0kAaeQ7KkH2j5zsMiZUNb10X4Xh2sJnPTtaaVvxraRlst/2rpG6qDsGNIn/rUp7qPfexjxWAT95nPfKZ797vf3f3kJz8pcbzT9773ve7f/u3fum9/+9vdJz/5ye6YY45ZMuIoa5bS4kUvuOCC7v3vf3/P65QSr16MRHqMKsh91VO5LZjSRX1DD325LCH0ke3cc8/tjjzyyNIJU776nXvuT7svf/nLXf9u051xxhklPh40eWGq/DEWoblusbINxtgoFUrlFg1pqGszbJgcqGvn0UCnnXZad9BBB3XnnXdeSechP/KRj3Qf/ehHu6997WvF48rDYBluhj30DDj1qYYwv27mp4cddlh35pk/KLTtcAtoWj7tfdKngheW/rKeRhjkSDmXXnppd84553Qf/OAHu7e//W3FkK+44vI+7Yoiz6tf/eruDW94Q/e2t72te9GLXrTUQRcp//oIwVTayrA63eqz+QYyBP+bvbMtW8OYM9/+9rcv88Yf//jHJZ7XPfPMM0v6N77xjdL4vPI3v/nN7kY3ulF3k5vcpLv3ve/d/eZv/mZZ+/7Zz35W8px11lndySef3J166qmlE0RR7s8884zSUazRWlUQ8NcRlPXVr361eHjPYDQ4++yzS9l4/Oxn5xXjY2ziyMsAeVEd6Qc/+EF3wgknlCt6Bg2RQT7e9U1velP3oQ99sLyYqrv3i1/+8rLSYfF8xSte0b3xjW/sbnOb23T/8i//UsqoGNpvUSzazuQL2vsxUpdFgG618tc+97nP3d9NmK42uZaGVuNp+FkT/GBRvoBWWI0nhK8rvvKYRuyyyy6l4Y4++uhiiL/1W79Vrne9610L/Qc+8IHubne7a7fnnnt273vf+4rh3fSmN+3e8553dwcffEjhccghB/ce9pPFOPA6//zzu3/6p3/qpyPv6T7/+c93/YtvMXQdQGcwdXn7299epizSf/jDH5YOxRjf/OY3d3e5y10Kr7//+7/v/v3f/710Gob/oQ99qDv22GO7m9/85n357+ne+973dp/73Oe6ww8/vLwQ3eY2t+7zbVLqF71niiQ/w/yd3/mdbptttinTGlOje9zjHt2DHvSgbrvttitt9NnPfra7+93v3u28885LOgu/edhQWs5hs802W2q7WXmubRk2yAP/qkGlorBtt9u2u8UtbtF997vfLV7o5JNPKoazzz77rPeu5xTvx5Pe8Y67FeXwegI+P/3pT7sTTzyxe9jDHta95jX7d7e+9a27j3/84yX92GOP6b74xS8WY3nBC17QbbvttsU4lM1Ieb4HP/jB3QEHHNA973nPK3GHHXZot+OOOxavfuqp3y9e2VTGvPSUU04pU4HjjjuujAS8+jHHHN31zqT7q796fZEZ7cUXV2MNvI3/+q//eveoRz2qu9e97lWe08j4qScdkIuB3/SmNynpDD10/79hrgGrdBuC8fO1idV6ZYsMzbDNDbfpDfOO3emnn14a8sQTT+p233234t3sEJ188je7b33rW+uN4BYlj4bedNNN++ua7gY32KJ4r/vc5z7FO9///vcvRsGznXTSyd2tbnWrYsCM66EPfWjxNjoDQ+NdH/7wh3e3vOUtu9/4jd8otF/72teLZ9xrr736TnXK0nSGjN/5zne6H/3oR0XOO93pTsXbqsZXvvKV3ttf0D3ucY/rnvSkJ3VbbrllkRNST7ufAig3HZhnpo9anzrabbGFdfq68bQher06GPOfso9FZRjsa6XtjbGRCX4bVHYqTtAA9VqfVwvo2zBFMw5tefNCZFM5V/xvd7vbljnnf//3f5cG3XXXW/WGeYNiJLwiA+HB7NmHh3nl5ZfX/DwmA3DPSDbddJPy8sfw5TNl8ozO5oUG4e1/7dd+rexC4ckz6zBe9Mi2++67d1/60pdK2Qz7zne+c5mTM+KddtqprE2Lf+ITn1jK8RL2p3/6p2U+razUF6/oEFL/1D1rpT/72U/LnFpcVihMcypd5dPymgo1repmHl0bWjr3s/IlPtfaBjUt9Um6dwAyt7TjsEFTCBWH+rY8v2fAQFPp8jw7zH/7b0PLD3/XXXfdtRiQof/GN75xMTQGvNtuuxXjMBdmzIwNeDANHI+Ve/EMwouRuM0227R0DLwZ7k9/em5RqjRGbVrAWOQRf/bZZxXj5KVvd7vblRfLr3/9690d7nCHMq1hvOa6ZOGlzafNmf/yL/+ye8tb3lLymCvz/nnhS51Bw0E12hpfO9ym/QvgD8uzUcULJfnMh8nasFjS3fLQrprUl0j3bVobpK3n1l3ZLAEmfQptfiBX4D7PocmLbNDSw0aU0AYN2F7HaRi4bwubhYGm0uV5VrCr1xrTrIBGiAF6C3e/3Xbbd7e97W3LvJPn03CM1T3DY2SMSGNrWIYR78vb1QapiosXQLv33nctHtzy2/HHH9994hOH9p73osLDdMNUw4uXuaxVAstZXpx4Yh0JD3NzhmmOyut6Ns82fTC98EIpP3lNccheddaenYgO60ucDsUOGLR5+b3utU/3xSOP6D2+OfsRfUf+WPH42267zZLO1G+sxyFU/Qttm4/TVoaetqRXu0h8ymlDm28qXZCWspfLUPO0zxvkgWFc0LywKF3CorTBOI6h3O1udytGwrB4QMaocXk4xsRLx8PyfozJPYOpW6F1XsmbmYMyUi9oOsaBBx7YveENbyzTBqsdjI2BPPKRjyzrwi972csKjXnyfe9731K+EWCPPfYow7j5uGfzYtMOKxz447HV1luVFYs///M/744++pgyz95+++2XOml0A5tssmnpHDvssEOJY8zq8IQnPqG79a12LasdBxzw1l6+G3RPfvKT+zpus5SfwUN4XpMQedq48XMbgtyP09swCytoe8/St3H1OEAR8xgAWm/VGpiC5YepfJQrHd/VsCgtGrRtRTyDua+XK0bLCIGHMgXwrNHxR2+IJj+jUh8Nok6uloWsQJgKeEaLh3u8gRExwKzjCspgnDoHkBXvX/zi0r7sHUtcff5FmeJEfi90lt/Ihr/OqHMpDw80kHv5zbOVkw4pzZIfOd2TXSdA7xnUG/08oI0+lZ+yZyH2QB+hncqzIXzRjm0ydWjzldNoU8Tz0Bow+mAqH1r8F+GrcqGdh9Dhl5Bn1zYNIm9OzyUen9BFsUnDA/LsGt5Jg6TLLzhtloNLoctVo0HKynPSvbD0HAtPBsrDjw04ECekDtFZeIP0lAGhvy4NGNoyW8ziK36qfmhd59nOdElXA6tV8rpGqwyhReJEt3RB2+jBuBEGHkM+vDzL774a0dAZWiRfmz+ITDlRBlN0U4icofec+4Hv0JmvSyh3lvHCLDlmybaIDq41A/7fwrjyFDhWomd0DKxVSuLbMEYb514efIYyaqO1+aeuaJSd++QXl5BRsE2H8GnR8hxDWsL1h5VedApT8k5hqMN0/YNfOQNeRAnzaGIM7b0lIKsMOdvAQ7r3MmboE8ydpeHtcAy05bgPP/nxq3kvLnNfQz6DQiegYZDKkZa8yW/Oi4dnME+3G4iXOWx4Jt2c3PzWvPeCC84vsrcyt/JBruKvD6wvbhKRayzbYpgv/7U2B56VBy3+oZsHdELrfaYQOmWuRgu//OUvui984Yiy+/W7v/u7Je4//uM/ihEAXl6arNFaGXDvZaytk3t0wPA+/elPd8cf/42yImCumuWvPffcq7w8MVIHgpwGs7tn1SL8GOJ//dd/dXvvvXdZC7YcZi3YMp08DHP77bfr89237OxZHbHW/OEPf7ikkQ9/L4HyW47LS+M8tG08hegU79Q1Ok7aFPCly7x0jpG8rnhDOvssDLTsYc4cuBUWcfm/fw6DcUjaOEzRJkzRX90QuB/zb8tswxVXrCun0BzUufDCn5fOd/jhnypnH3g2NBb9//qv/7p717veWdZ127Ig/F0Zkd2+4477cvGcVhis5b73ve8rPL7//e+XPLa1HfThWeVVlsb2fPDBHy/rvvihcwTSQSCHbqxbO7n2jne8o+QnD6Mnv00RKx/y2Rx57WtfWzZFLrus1mMclJcgT+oxFZIGdeOi3rdpLW0CtM8JLW2bp42bFYb0lfzaUAy4hmzfDWHINChB0Gh1EX1gPj8sF35WCP+ptJUB3XLa5WWuDHVrtJ6k8wNS3m3fffftnvOc53R/8id/UjywNdgf//hHhcaGiKGcxw3/lAU2JmwBP+MZz+z22+/5hZeOYBeNwQHDisHh2Td1ic8Gis5w0EEHlbJe+tKXds9+9rPL2u3zn//8craCATuMw2N5y3/EIx7Rpz+pe+Yzn9nTPK94eyfObKy0bSSk3sqpel2uszZ9fKUfYZyW4LkN4moZQzu29AlT5c8K4ZX79ppQDrTXoKcNCQmw/rIsjkvHDFynQgy38q208zHwn4XIgGfkrWXV+zYEuU9UhkSGZeg1FbI+bCgGHtuQ6FC4qQbDU98EeZVpmiG/sP32O5Qjm841fOELXyhzVUCXuas5LUPDW7yhnDf+n//5n+7e977X0i4heZxSY8w6hXLMpS+++KKyZu0sR93I2LFMTfDn3WfB6FvlHtoYXNv7XNtAzln6jcFOhSl6oS0fEh/kmb2QGcLPtadoaHoDpkQN6pr7cUjaOEhTyJh+CAO/LBHNC2VLsuc7lZaA11iG9jlxtcxBtqA+185nqGc8fn5jfuk8L69nGGc0To4xSOumeAXuKS/3AeOzqyaNwcp3ySWXlnO/f/d3f1fODOsUDpnzvGQxnYFb3nLXvsz6UZk0mB1FO3J28cyxL7vs8vJTKMcwHe/UuRwM0nF0orEeyFZD1UHio5MENO1zy2NWHiEbKO6tf9uur/c1z1D+EJJ3VtxwrTw4meVpQ96Sz02rtBYhnArj9MJsFELjfh5dwqI0q2FMk+chuv6S9qijjiyG9da3vrUM44zg93//98tOmBeSxzzmMeXQOmOe0k3bsODZkE7pQ5lrindnhF663NsdQ4snvUeu8AH5pJv/Vs9T8YlPfKI74IC3lPmxqUO2shm4POPQ6k1o0dK1oU0L2vSp0FOU0JaX+6m45Mt9W0abnuepUNJKzh4hHt//KmIs6xTaeIZQjaUaIYNgZI95zGO7v/3bvy1nEHjGV77ylcWbUQ56ZxlijFPl6ASQzm/5zRLYDW6weekAhjs8zFuf9rSndU996lO7pz/96eW87+abb9bnW1emAuTyQsfDtu8LRgjzafNj83By/fEf/3Ev71vKz4qcXDN3d9RT2iJIXabqc3VB1msLY17RxSws/agzSIap0KbPut+QoOHbMI5vaRcNyTfOD/F6MTzGY64pOOjD88Z4wQuYF9YpWWIE7Tzw9NPPKL8Uvu1tb1eWvhhkhsEstfHmdVhc2+e9ckkG04L627U6vTGn5WFNEcBwbf7Li6P3MyhTHeXAlIxTARaJ25DQYip9Q0P02dZp/JywotuKvL7QegMhGD9PgxGtv22QfLmqj1uVZ4yl0r2R8n5ZXUh50hike3PUj3zko2W5TL4W6LzY8bYMz1qv02imIn7w+djHPqZMRwBddKosUL54fJ2CM23xkuZ3cQ6/O7dsfvvZz36m/H4Or8hmSgHhCe5T36uDlteikCfh2kTaYlEsNu78CoLeFtWdiT/vlbknA9pppxsteVyhVZxG4QH9XMjv1xh6CzwcDLJ++853vrPMo70E3vjGO3cvfvFLut13v1Phxdua8/K4LXhTc2LGq2xGaunMoXtTmv33379430c84pHdQx7ykDINEXhc9YDI28q8CKYMLzw2BG35GyrDIlhUpjVf//rX+3Kriy4RfUZKnQeeoN2Jm1VYyzdGMg8t7SzgiU+8ovJhincUii9vidYQLN680qpBnavW/JE3vGz3Mr7QBOik8YZ0QV509GFKAHhYNnMMU0eRjpYMyjBdQC+A3UKbF5bE5JPHNIHh4mUN2+/ldJycWY7M4D5yTwFdQmhn0aOJHhKSbwpoLQ3W89Szd1zDFzbEHubJ8CtjwGgFQDePpzQGjERjJm6M8HM1JTAHTd2mykCXPNLa+5Y28aYh5rG1blWWFm3dW95TwB+9QKe8fp0rV3ln5R3rt5WzRcoXQjdFm3LCNwaZ+Kk8aFsDThljiB/LOw9owyt6GGNNP0z2NFffgOcpbsx3iiZAm2vKD33SPLt3JUPiZsmbfGMFQ8szEDcVD+Pnljd4NjVo0fLK/TyERn3IG/2CNCFyhGfixvK1aGlXo5der+pV6Vr9Jj2QPtZvyhhDfPSFJ5oxvxbSWl5jnp6XzkK4MgrXBM952UhcmNblnqHx2jzhM9BGKcPzOCQ9V2FcZitfyiGD51bGhOTrOS7xTdr4udKV2PVhQPgkVPoqA2iMNFwbIPyFKu80b9AgQviO0TbgILP8Q12nQsrPc9DSrEwbOmfytzwEI9Bwv5ymfVafxG9okA/UfSpthetqCVYDkjRkBFwNLf/lYaWCIc/j+AG1UVsv0aJWPI2x3PvkPs9QtzrXP/So5Q4Rgzzl/8K3GuZK+cf39Xll3HK6Ovds46YQmZGFNHmm+LZ1hNX4T/EYw8ux+pfQy93nWkY/K2/iw7+GlYbveSz3GH2714ZHKPAkgnvzRodZTBd4uLj9Gur2Ybb8hKQrOG/uLX/3oVl5P+QPvCTlOWntc/35ztoim1WDpIWOEuqZWvNUdVs+xNdyK18jDXr3UVwtg1zDtmjy1DrbSq1bqi1NQquTSu9+KFNIQ0Ue6TpEnEIgDZ261nMRF5f2EdxHVwLatozEtVdIWu5bhLalhzYPuC91K3TLnYi8FVetb4c6PQzPBPnlzX1oxmjzLD1PzYE9W4u0tun4nu1Rv+p1WutmN7tZobPX740brTwplOL99Nyeva/VeNNHo5FdwRWta/LL50oOlfD27suSPqHkkM04b4wN/JTd98ps/barAI5QWlf97d/+7fICl5fOFugYwBFHfKHzdR4n1CxVtQpM2UHkNoSm4yU+V3wjp1A7ER1VQ6/5hzqAdA1NZh3qnve8Z5Eb0OmkjlxqGy94mTbRnXr/wR/8QbmGb3hHvnSKVgeRJbImDi1U46o0CS3vSntF7+R88Lz+yBfCC72PujjPbEkwZ5mnZMg1SD3QJj7lBqPPq1Zv4OuI1iNtbzoyaC3Tx0J8eCOfSIqgYSifSuPhmwdHHHHEkueWJk+uuR+HKNjVud2cf6WgpLdIPg3qMDhDbHmrBx6WvNKI4eOKNjjvvPPLi0jiw6flB3mG1uMkLldIOX1snw+PGt+WqxO0c0mG61tsGj35E3hZ8TZPLrmkel06jgdGEyijrWfK1Fwtz9SnpXGt7Vrjo/c2X1DvB8NraQR52RGZnZv2XMsa6gatHSWgY0/1Os1/qQUw0CAifTGRUuy7P+UpTynf6fqjP3pO8bqMkxA+lGfNknA8nXXVyrQqgOHiKQ9vKg0o2hqohuJRGCg+NgXs/ZuyVKXlwx16Zv2Zu7VccgXSlEMe6fIpM2W5igfrrPKTR1k2KHxhR15rrb5i6WMkhmQGT8Eg3ZFHQUdSHj70oDMzoCrvoBN1ci9efXwbzdd4Kt8qo6tnad/+9ncK//CxBa3u7sdA4+zDk5/8lNI+++23X/fCF/6fcsaC9418NkWMgvmwn0AWa8lkc26ZnDotKE88/aBV9tlnn1PaC+TVPvSWsxnojBh+TYIPfWhraXjRkV/B0Glty8KqtOEPf/ijXidVPnUKL7zDqzqU2o4x8DGKG0UQEJywmf8yAEODn8o4cO2bBxRkt4hnZgQXXPDzcpbAwXC/JsAvw6EPMaNzkIXX9tlTH//gzTWgXzDw8hRDYIv3vg0W4KPCtlblfcYznlE+whdE9jR2nlNp8XoxI/HBD2VpCIpWFx8S0fD/+q//WpaBKJ+xvepVryp1Qudbu45Z/uEf/mE56+Dr7BrW0GbK8bSnPbU3nHXlu2Y77LB9aXgfB/SRFUcn/UwIX7tvvm7pZ0v4+BxqDEi9X/ziFy9tmrRDbAv1SifI5oi47NBxPj7TyhDR3Oxmu3TPfvZzSl3IwtjUydQEH5/dspXNmF/3uteVKZu2YnjaxsF6myqOghrR5PFzp6c//Rnl4JN2Q3fzm9+s53FWOb9Mnn/+538uNkQu7Y4HKN9X842aOpuNJXqlRwb/N3/zN+UIqymHtuZU5mEYA3sQTmGYKRAzhubbuIY1QtouJSCPwdvst98LyikuCmeYGiTnbdFdeNGFxQAJCxpeXs+CHnf5FZeXr4lTHO9oPhsvpSFs0/oNmt+z+Q0YSMdfWULftIVevADSK5/qqSmPISmLojXIiSeeUGg0Ktl8gUc8ZeJHHgbtsLl4unCE0U95KNhhmyOO+GKh5U18yfIBD7h/0aFplLiXvOQl5as9dIqeY7BVrCyOgDw8ljO++ASpi3rkmcGSjWPwOSrGqvOR0S9JnKfgoV//+teXzuk88oEHvr84Ino3BXHO2da1TkkehsYjc0zeJ4wqypDH9rtOwS44lte85tVlG/6QTxxS2oZe5eNRvYNwCgcddFDZ9lbvxz72sUXv9Svy68p7jbKe9axnFdvypSTG7vO36q4jMV5traNHB7OwbA4MPJ5eqYG8FNi6dG72TW96c++VXt0X/v1SkH1+39L1mSTBwWuehlFnbojXxr1hM+5WCJ4D8Nl66626Rz3yUeVTUF5a/DCSUctj2HEY/D//8z8Lf594MhoAeYX6EsVbrawo/kK8mbMHj370o4sBKksDnnNOnfpoIHIxVKe9nIPQGV15Ly+xfsQpTidSN42LJxrlmIrc737365X/6MLbIZxzz/1J8TY8kU6jDgz58Y9/fDlmKR+duWbaMa/ByEovjIwsgo6nY5qO6DBeWvMlTCOBTsXYUj8e1w9KjRA6EwNkVOromf4ZMEP3Am/E+73f+71SB1MQDukHZ/6gGC8YudTlQQ96YOkMDFb95HvgAx9YXv433XSzkubXKoyb7sALunpzDvh5yXPcVHsbzeh5nj42juHm6gjh979/alG+HmUaQEl65j/+4z+WlyJfAMfYkKhXKUBDUiwh8dIQCQRzRSuk4nlWGXkY2mabbV7S8QcVM6yaa/tJje98SUMvpHz3KQdcyYI2vEwlUpY8OqE/8Jh85N9mmxsWhTthxti+8pUvF2+q45x11tlFP7wfWQX6YeAMCE+Gy5CB8RiKDz744O4jH/lw751uUs4Fm8b4QalfgChbQ+FDhoTUSQBxedboOgO9RFe+oOmjgzqiYVldxKORh5FL8xMkhoifD2Crl47pPcb33D796cPLKlI+9k0OuufldTSdO9OTQd515dcj9KEjANsggzhe9lvf+mYxfHG8vtEApJtiqqY0v+pAj7/fDW600fw/f7z0i4wI5Ddb5ijmS5Rqfmh+Zm6kcfIiIvgWLaWAuZB79HilgXljgjE0V5PzNIp0P0tHT9nJ54qe4IYac2sKZVRpRKhru2uLfGAEkFcw/J1yyndLY+nV+PHS8ipLPvCXOZfHrSmeSae1jOiv/nhm7Hj5PZp5ofmiqdO++z6tGLp09cfDlX5864w3tKLzkpe8tJRhCOXdPvaxj5ZTaK95zWt6fvuVkaeuq9eQeuBDPvcgzd/nY5h0zZu71/E9qydDI488HACZ6MCz+/DfeusbFmM58sijihfmsXfbbfcyleFFeWse2Z9l0EkN+X/2Z39WRlxtgwfZcrjINctk8ilLB9MBNJl5tzgvzN4XXvva/ct71ROe8IQy7aG3OppW1OlhXd5TjjDGsq1k4D2s9fqdGG/rhUevMp8zP9H7Cc+4P/Wpw8tnRxmWFyxDkB5tvsOAVFDv0qPNvXhx65gMmWAqh47SIyBPJj5xFMcDejl8//sPLG/W8qPx4oTGXNIIQNHk5k14Pb8wZnz+Qmelr5429U15kDRy8TI8lc+T7rLLTUsHoVxTh0022bj8jo6RKIdM5sny40VuV/qhFzLxNuQT6A4N7xIPqnOecsr3ysuwqUHqnjZxn+fKezho75p7bUP//uSB9wh6J8Nd77r3+napy5EJhn5tpo3Vkddk0ObT5rI6Bzp1kZ/xqaspE0dGVumZ34KpCx2aB/vZv/bW7kZDDsBUURsyakuX2unQQw9dagf2kHp7d8lqkHLEJyjPdW0/H9pfZhlTQQ2ogbw4+eaAQHDGwNsYjhi3xmC4jEblTdg1EuE0GsPjFSzMo+F5GKR85qCGIkbAE1EQhegQhkAKpADzMB3KlMbLBOM1uSe8e8HUAM0JJxxfZDXP8jcy9trrLmUuZoPCUK58b7UaTlkaQlmGP8tOZNUA6aB+YWEuZuSxhGa+3qun6EX42te+2qft2j384Q/rVbym1JNB0B8Fa3DvD3TFAfCwaH1mlX7wEG8lBx+OglEzDo5E3bVH2sYQTF/kyzy8OovacXSuLbfcqqxwOAxPHi9cj3vc44v3Y9Q8pA5fDa9O5Ri6FQWyi9ehPO+22x1LHZSjI6gHHfLMPDRa8n7nO98t9NqIbNpSe2fThXdFx3MbacjhJVY6GzBKaVNzb/XDS1tog7QxG7388sv6a+7XO8njjjuu+OVYNmF7x9kr65LyAmKasNnmm3Xbb7dDeaHzdxc0rKHEOqTGpQiGqwIqrGDK5n01vGHYM+UxHgWbixLEUO2eh8MnSzx+ocsjqQilUJZGJx/PQMY+qpQnTdDpBGWhUX4d0gyrvnZe59vKcq9s9zwDg8YLPZBRnPLNL/OSqG4MzssfOXmueNLzzz+vGJDfu6GnT8Zo5DIc3njnG3fbbNs38kYbdxdf2uu3b7B1/SgibrP+JeeCn19QytMgl/cNtcNO9fOrQWRWV3R04R4ynDNo+mYM6uUlTNvQgT/LpRORsa7c1Kma4b6datFhnvHVTvjZPPEOor7aie60J5noTvuTSZv/5CfnlhdK7SC+yuznT3VvwJQFXw6NjMphlNKMmKYj8ohPADqFPK/p3XtPNwxX1YBrosqMIY2HffnLX9a96EUvLi888kSZQovwlg7hDe6ltXHoQ+s+aVN8+/972vVz2fXpLV34KINRU3bioC17ef7K1730sXzLaYc12/BreSYkTaOD5+QXTy5x5bkPF/dDLgMa6yI04sM3z236mLfn0EeG0LS0EDrPrYMY00HKpF+eN2UtipZXm098W15LF0gfWnMBhIneeec771F6liiMVhd6ZfpUHspYndd03qCmVZkiM77CFMLLtYb5/CG0yhmeq+wJreI9L1q3dT0d59HSTjXgFGLwLSJLvV/ecVYD2kGOQZ6WR+rlfjWe6Ga1wyLytCjlzfPAQSsscPWGc8Oxt91ZkK8Gvbkqtu2h+LkP31aG1ZAGjveD8An/wHMdmpb/tXrlRYZWjjHfKSQPyJe8kPjwzHPQ0kJbbq6mL0aMMe8W6KZ0NoserbYwurQ0Y/kgfKOHlmbMH61pBHnjsWfJUEf1YeQco82bMj3P4rdBHjgwfzIHayvXVjAYBCmXglaoFomnjChvCilrqrxxvDLaZ3zbct0Pz5UuPMa8gnFae23jIfxTBuOBcfwYU7za+1mYxxPw8GY/RnhP5Y8cUyHtlKu84mdhyFevU5gn/xQWMuBxxZQ9HuLmIfnj3VteuW+v8zywdOW6ju/HIWkw5aFcjSb15e+C8uLmZaelxaOtZ+5bHvNkWI7lca18MM6XskKX56sLPKZ0m3aBlFGfh3s0CZ5bXsm7CJIvPGaFRVFWIQidXhTm88B4s6owNYS3wBf/RfnCasNQeAKaKHIMdNIib9Yyw5vh2g2zM2QVwRKapSRrlWhbRJboCdKJ8QxfCH/pyvccmfMCJT08wydx7jOFwLdNb/UYvrCIfiPDmFYctHwTlJ+4YFwO+SLvPDnwmCWvtPFzyhQ/i+d0y18NzBO6/78+rEcr3Bit0NcUeISfa54F3vaQQw4pH5q25urP0lracWLNRkD1xoOxJl+LyOga2tAJGgmkh7a+D9RnedoyIGkD/dCwruF9baItazn/5WWFbhZWS78usPZZz3rW/q3QUXqLVjB0lG7otT7bNtIUhnnfyp45xRfwbBUXhL5NS9yYV1Dvq8E6UJIyrFE6yXXPe+5TTsE5LuoQk61uy4Q2V6z5ClZdgJe2rht4kbVVa01UJ/BCix4NWh1CmncGu2e2lm3V88LRHXqbLE5gGSXwkZ6yrZVap7VxoA7ySR90oT7Ljb7FWBfCkLemtTQBvqLHtC3aNPaQ7et5aO2hxZi/53HcFO81X/rSlwpV/dXDSgOOMbWZ0dqNs8OVIWYWGAyhx79Hm4JGV8witK2xQyvfSmX4m3D+ptoN+3w1jUG88IUvLEa77777dtttt21vPJuXTQeno2ypOjqJr7MPVjDsEjli6jSXxuK9bfbgaRsXnfw+FmjH6dRTTytGd+c736mv27pyXoTefPHSGQ/wtUlnLhgrXeo4Ppqtfs4L62g6gVUUxuxUmJNfOhXZtEVf+3I/rje0ehnrLEgnaGFaIOsibZEpRDZXWozbZZYMU8AX5tnY2mc+85n7K6Qa2jDszUJobenFi8TApxQoTnRbkTFqvlSuzvMSB+O81TvUtHnyoktehmTnzLMgH8OwT2/b87TTTi9zYrtWjNf8npHb6nWQiWc0X7bN6jSe/Xtzvuc973n9vPl2PY+jy5Y0pX/yk4d1N7nJTcuvWXhL29u2dHl6c2vfW8OTp3dwypFDv6iwxcug1c1ZjGzF2g73+0Kjg/LlZSxpM1VUp+gExjqbB9nG9K1+W74wLqvaw2VLHnhe2bWNh3ab4g3iazvPr8uy02jtaagE8S2DFDjFNLRToU1v74ewvDyhpyq0sLyi0lPJ2aHSVWXrxa3yGBKDcujauVUHqh288UsMntWQ6OyHPIzGOqdzGvbzbR/zgAzQwZRddrlZObDuwJHybLczOGdBnL3wfJ/73LucwWV8ZLE1ix8n4CyATmNX0zkD5zIYhDLkdyxTuQxdp+PFdZRaRx2/OpBxu7X388IUTeKU4Qq5joEWkncW0i4JkDzjfDVuAdn9N2CaSIgyEhI3ppsKhXPzPM43PFe6oE1bWdbyxnGfkGfXIHFAeQzBcO8IIUN+5StfVY748YKGdPNSZyk8W6UwfxXHqHlpZ6V5XL+KcC7EfBpPvJVjfx94bkbqLHCOB5LF6Sz0Di0ZGYBh86w6i47jWVkZOXJYRtpgBMvr2IZg1vOsMKaBsV5dE0ITjJ+DNk/ytWEqToCpeGH+fKFBFDYVgnHcaukrMV3xWVCB9hqMn6Et19XJNb/lcrqKkTl0woM6JedAjOkEg+GdnVpzeopHdGqKB/SiZu7sa+n+loWzyKYbPLdpQ4wVaoN5Hn6dgsY05Zxzzi7zXzDN8eLHaL0PBGPZIUYME9W9lrCy3FxXgzqOw3WBhQ14LMj4CmOaMVZLb7GoolbDLD7mqIZhv67gYa0CfPWrXy3HBnfccaelQ/KMGp35r2GccRne/Zku82DGnFNvvCNIz8uiujoGmN0nhsc4zRd5f0ch8dGRnDN2NtdxQvNrBo2/fPhkVSLPufallLLmodVDez8PyPBPgFwDvAY5rj0sKmMx4AgYYTYEY/qrw2MKUcg8XlenHHx5RMdA/dLDUpi/0WYa4LP94MeafreFjsHuuecexeCsHpg789b3uMc+5dytqYd8zgDz3lYrnDHmYYHH1SHywuvK4Hl9GyZ+tuNc8Cte8Yryo9i9975L+cOIykMnxJPjRS5502bXB9KmCS2m4mah5bFankXrtmIZLUPcPPAg5nDtTlzyRDDP7jPUhS6YKqNdNmn5jCEtQePOkjc8yNDuxCVOMFUwF+bZLKX5mQ0jzBu1dL/0dQbYz4JMKwC95TbzYga744479Pm2Kboxt2X4jJgXtY7L6Bletq49M2Ze1WqHZTJel4Ga81o+23zTei56C7uC/Ru5Ms/v6Rh16hw9rNZuoRPGOhM3fhboZ9xuAfqWzjIavaWzTQFt28bz5AV85ZnXxsWAN5TxPANukcq5tnw9T9Fn3tcqbZYsi1QuiIJbA5Y31wQIP8+8s09OHXbYJ8vvtvyWqy0L32CWHOJCV5f16rnftpykuSWfuHQ4NC0PkBfECejlS/wshHaWrC2maCMrRHYBbdaB27YLfZt/UTsLb2GevEs1lj6H3wSqESZMoU2fRROkshDa1fKM+baVnhVCF4THOED9GdIp5WdFlr8Wafh5yLJQDG05r8EgxhA3VS4+bVgUKWdemAIZEtpnZbfxMIsHjGmnkPRV6Y499thSUv3x3KDcWcAwHjgejbCzCoqXSM9EN6ty6Z2G3imatgw8IfJO0UcuV0tT5J3iPX6WR/A5Kh8GsfqQKQWEPl4TIkfyBgPt8jJWQ87XTtUP/zzHU2bO3ZY9RnQWGefJFNrWo44hf4Jv2ZlCtbyFsTzaWFzsZgrJP27jKaw5+uijC5fKGPHKISCIcGgzJMcgImjyDEJYcF8+ZLT0LczDealZlWvjyKBibeXGeTxLp4iVBiyMjY3ChrgYh2dzV3PYFlMGDGM50hCJjy48Jy5l5hp5W77J0yIyVp1V+ccYynGtsqacWWjbLVhZfr23wmIO7/1grIe2HM/VUeJbO9xyfssRh9bKMMaao446qnCYsvZZzMXHQ8TYphVC4Kq8Vmmhb/O0xuLqhYWxpbETD7mf4jOmcaUIc0p/gNB3KCqNUPMxTqNKvGzqFJ2M6+he8AKGRkj9vHTlFw/RZcsLEi+ubRzPeHq3oN+8Y5D/0ksv6dMHGVwFafRklFCnvqilNOUGnvEX17ZxIL1FaMd1b1H51zYmb/sSl7LbfOKih/BdDs/LdSxEt1NYc8wxxxQuFIE4QxGkgGTOs56e78HOqyDocSqYhkI35huonGBd1hkFmwiOOTII8d7oTV3S08f5W8Noy1E332jbeqv6ktEqEfx83zqs79d6ERnLh+9Q93rVIXyzzYtedsfQ+5mVtWNbwjoEyFPT8ayjRmSQZuNEHfF0FsJun2U5BozWLqC/Wm9NOCsXWZYDB4lsN1u9wFe92vq7tiFtnHSI/Klz7AEv5SS+zQOe5c1LXHiELvkgtNDyDKS3cWjFpZ2m0JyFWF6Ye4WkoIT6vDxuVljPaem55dXeQ4RnaL5eIxx88MdLR1ERIV+N9HLFY2bVQocKTRSXa8raZONNlhTRlo+HZS9LXYF4ofIb+LaBEVkHdkJNY6M3avgmhR0+HTAyDNdyKc/KB/noCBiBbezTTju1PEcGBhd65Vo3dsjHBkn0kDIqv2m0NGO6cbbUWbmu47xtaJG46LdNr8/t/fIwzjN1Pw7lNBoC8rUJ86AylNe+2MzKk4pHuGCKHu0Zp59eDtNYD/WNNscLeVze1+EXRuN44g471M0Ca6pOaZ199lm9IV1ZhlK8eStpGtw6qyHOHNZczRle6Z55Mmu2DtNYm5UXrTVeB27wNNIEGhYYm905B3B8P9lBHTtoftXBwPC1c0dGnjXHNPGPjAzfiMKLu8Y48cwHYELvlyL4+yiKj0XbNPGFyZSp8yhDnem6bRt1VrZylJny6dSWuCmUuqLTyS/ppytn/bjqjAzZOJkF7ab89rQftNfcrzeHFfYwhXGnmUIZS0K4CAba+YUvCvwI58qT+ByUuZQvY/7DP/xDGd4Zl8Zh2BriPe95bzlFJp9NBgapYQxhjEmjHn744eWr7Xhlo8JOmq1azxToXK8TXrwmo3A+mAwO6DiBxlgZr68lPuABDyjGOFamxlWGNHWwyWBjI97e2Qb8dD68TTEcs3TKjLH5Bp0tZNMFB4AYu7y9z1vSNVm9b0CuaOoqxZreG3+zfELV+WNy2GXcd999yxdxnJh717veVXSkPjqrnUadxEk6fzDcV42k60C++MOgnV125UB6J7dU7rj+8xD5p+jT7qthNbryedUNCbBIXOIrVsa394wPDOMOzlCag+YOznz5y8cVT8Dz+HQV43B6jLf80Ic+WLyID0P7HOyuu95y6SPOGsPnsO5wh9uXj0prJJ9GcrrMB+VufetblXO5PGm8IAMTp9P4iqSP9zEC+c47r/4SI8p0Ra9DOMQjnw5jO9iUxDaxdJ+GZQz4Oe3GuJxc04mcvfD5J598fe5zn9sbyZbFyIp3mniZkUZX7hlX9Zz1lyVUqVP76/VGl4MOOqjoE39G7RvEL3/5y/tOsmM5e8Hbyq/e0n1lSQf3YT869eX3+93vvuW70LxzZGhlIk/u89yGWXTXZqgTqwUx9AQVqZUBjK4J8MVDQ5vf8kSM1lFD3yPmHQxljJfH8x026d/4xvG9sd+9fEOMl37IQx5aGuaMM04vjYOPb7ntsYevLu5WhjiH0ffYY4/yYRZlaWwNaPWA0TMqL2A6kc+g6iz1FxD1j9UEZGZMOpwvtudD0w7H25L2MXCGzCDUg+dlmAzYsO07aPKaGnh55BEf/OCHFE+XDt2Wl3vlOrcdD+8Fz0k40wijBU+uPPVQHxswDsSL5/F9MkweRoqX6YTyvTgaFYxiPrNKHuc9vO/IB2RoZQqWzKLHYCP1PmGMqbirgw0yYKgFJyyK+bR48oL52xx+SuNlzS8SPBtipVMer+bK8PRsh8nlF0/5jNE3wMR5rr+D64ehfqg1lxbHQAy98oOrua6rxtp55xsVPsrRWTRs5o2QhkSj8X1l3RfR/SkCv6zw1cUTTzypdCJGxFAN4wcccECZ2uhYDMjKxy1ucfPSKckkfn0RRRZlBLXsWq76SI+8dGEEwN9fzPfxvJyXMIV4xzveUT6NatVEp0pe0KnU0bV25E1LB/AMtbxKOwb+Va4qdPQzxM9HW79ZWI1PkXKRwgKFpuDVBAjtmK591nBpCMtnvJ2h2+fx/crBfNanWRlyFMP78KaUbCgGHtrZWrzyAT9xaYiN1w5v8q5TAV+eyrBMLmUxMr9e5vHHQG/+64XTS5cjmPvss8/SvFs6g3CGwmkz9TLdcRjeiKEO/q6EstA6wOO3c0BH43bhDSuq/shMXp7XfF6nV4bpiDLAcVEG6TvEphGOcMoXuKergP6iC/FTtjHVptcl5pVV5sAxjBDOypD4iTptcIXQC8rVgOadPIlP9Fv7NXwb6r1tMwbTC0q1Zmpuq+Eyj8052s997vPFmxhONYLGiFzK4KUHb8IDD8biJY8ntHJgieozn/l0+eyoF0c/N1J2C3nwlC+jgqDReXrzT/ysTpgukJn3s0xmDsp499prz/JyZzVDmebaPHbQGk/4AyNXtmdze57blMF81rTIEiR+0tHRFX2QgZ7N+40A0owSruAanYB6LdfZbJkgz7NCaDYEbRtOYSNCCxE0IfFtGNJqeuhm5WnTx/GJIxzvSuE2AHgyxiWNssxvzX2tAWsoB9G9KPHYj3/8EwrN2972tvISZ67sF72ZSnjRi/I0Yuahyuadt9mmLpvV+/ppWN5SmQce+IHy62IGet/73m9pmI/8wNPiKx++4UVO80zlevH0RXUrKn/xF39Rfu9mXk6WBz3owWUObA7tK+4Mi7fEQ97oKUHZYCWB10VjqsD7OpBv/ZnMRgv1UH8Hkaw2eIH090a8XIIfmjJe+QFv9dhuu/onGATPePRmt1R+6j9Lvqn4qRA+4ZnO0oaWX+hCm/s1Rx55ZDFvD6AREgJM2mcMKTuNF7Q0kMJdWzpoaQnEOzECRtHSkstLj6FYoxlmeSmellHxOpaqgOEwdrx5c15GYytfPnwZDuChDhrQvTl20hiAMkH+sUxALm/ndECuNp33ZfiRBT+di8GYZqQjkctLZ6ZBN7rRTj3fK8uLHJ20fNMGylVnHlxHFR8d1XVmf7JrlyI30IG6K4cxqktGB/zpQLxOQ2Z0OjMHQF7PylHeLChfHdGlI0NkboEWxvpkJ2PID2MdoFUOFAOOYhAgHhc6RgyYAlqBpxADnkcXQV1DOwX5K43KVl7hGR6e23Lck4GCGYb6eQ6vMaRBK0P4tXwjK4hPWhvfIvHooouUFSSfq1Ep8gYt/bi8PAeeE19peL757RBIz2Ee9K0u8ApyTy72QN6WFlJ+gNbz2IBbmULvKsyTednP6lO4+3lhoBkKbtMTWkylC7Mgbay8AfPzTaFV4jTPQcYornaUmneKb+imkDwpK7QpA6S1fJMmaopvm3cRtLRTYrb8VvJt8w71TB4h7dPej0NLX8NsHm1c+zwvjH5Wv6FYLO+8MooQTSVcIUoT2vSEFtL06DHNmK5F0sMb0kiJc+SvTR9D/Lic8MxI1jb8mE/SWlReq8s+BfEpJ/dtXOJDG4zjXKfCfEz0kEmsxqdi9fIqVuzEwThutTArTzCVNg4ZWgRoKyAt6RA6HjL3bf5xaNPG5bT3ysxzW+Y4JC3p8+igPq/kF6SuybMa32sSWp5jtHQJkWc1WUxPpuLnhVllbkgoLoECF7X4q4sN5U+4YCzf4MmGuCn+LQ8Y82khPvSu82gh6aEZlwVJq3TLvfUs2ZI+D1N85uVPXJs+RQdt/Jj3ryKWxrSpBlgUs/KKb8MstGmr0c7Dakq+JryvLlJeym7LX02WcX2uiSEl32plBovS/W9j2aRsQ4RuaWcpNQpPWBQbQjsP1xafawNVB8tluj7lG9rr/w3DXBTL3yoWRBQfpbi297nOCmNc3406S47rErXM9Q/rcX3KcH12lusT5SVuPEFvJ+5TYVD8QD++tqA88cmX+zaM48fPUyGIXG2YomvjhJbeOrgrkDdxiW/DOP+YVxtCG76hTXxLG7R5cj8rBO6nZE0Y6Kshz6OpdANW08MiYQpTdOOwWjlrjjjiiP46ELZLLbOAzkJ79tgTN5UPXxhevCpCK1/gvsogbf60g0JhzHcMPNDaaWvlXQnyD+cn5Eto69bKC+1zaMYQP0+/4VHLYhxO2/nbwsNO53Ka5TqDqXq1dDDVFq0sbRmtftsyQz+mZQ/Z2GrR5oVZ9tAieVqdhb7lhW7NoYce2scNxMvXLwfiimEtk0H4la+4MJWvRfhCK3Alq8aRdEAvhHbMr6KWlWUbtLPoiJUybKk6EllSJDRAk7jII66G8lTiKirfDUFkmC3vICsawfa27d5Wb1NYrt90tJX6CF+o9VpJ08oxdhCVfCoP3j7dVR3EmG/ypezl8s5HdFZtUjnrExqs8MDp8VOIcCqXve8xPR7oXBOgbbjEeU6F2vtBacuV0YIM+KTDzQO+s7Y6xxgaDs/5fAcMDT8F8fiSoz2i2OqhBdpZHm05tFvlQQ/hNwtj/Y7RyoEWv0VoyTtrhEPXytXKMK53EPrI4AB/jpJ6bvMtHeapxA5JVIOcxRwIPDaI0LcFuI8wiXNt49r7VM596Mf5IXyFeYoI8I28oZ2VJ0pbRMG5wiJ8hUU63NiAQ6+8cd7IO8/xBGgBj1kypIyWtr1OAW2r33m8E2I3EHrxLTyPdSZu4N91/xePqToe7Oc/pwAAAABJRU5ErkJggg==;" vertex="1" parent="1">
          <mxGeometry x="13" y="470" width="176" height="93" as="geometry" />
        </mxCell>
        <mxCell id="SOp-MsYclCzhipOw51BH-40" value="&lt;div style=&quot;font-size: 32px;&quot;&gt;Domain: MyDFIR&lt;/div&gt;&lt;div style=&quot;font-size: 32px;&quot;&gt;Network: 192.168.10.0/24&lt;/div&gt;&lt;div style=&quot;font-size: 32px;&quot;&gt;Splunk Server: 192.168.10.10&lt;/div&gt;&lt;div style=&quot;font-size: 32px;&quot;&gt;Active Directory: 192.168.10.7&lt;/div&gt;&lt;div style=&quot;font-size: 32px;&quot;&gt;Attacker: 192.168.10.250&lt;/div&gt;&lt;div style=&quot;font-size: 32px;&quot;&gt;&lt;br style=&quot;font-size: 32px;&quot;&gt;&lt;/div&gt;" style="text;html=1;align=left;verticalAlign=middle;resizable=0;points=[];autosize=1;strokeColor=none;fillColor=none;fontSize=32;" vertex="1" parent="1">
          <mxGeometry x="-779" y="-328" width="447" height="242" as="geometry" />
        </mxCell>
      </root>
    </mxGraphModel>
  </diagram>
</mxfile>
